<?xml version="1.0" encoding="utf-8"?>
<!-- Generator: Adobe Illustrator 26.1.0, SVG Export Plug-In . SVG Version: 6.00 Build 0)  -->
<svg version="1.1" id="Слой_1" xmlns="http://www.w3.org/2000/svg" xmlns:xlink="http://www.w3.org/1999/xlink" x="0px" y="0px"
	 viewBox="0 0 24 24" style="enable-background:new 0 0 24 24;" xml:space="preserve">
<style type="text/css">
	.st0{fill:#383838;}
</style>
<g>
	<path class="st0" d="M12,15.6c-0.1,0-0.2,0-0.3-0.1l-11.2-6C0.3,9.4,0.1,9.2,0.1,9s0.1-0.4,0.3-0.5l11.2-6c0.2-0.1,0.4-0.1,0.6,0
		l11.2,6c0.2,0.1,0.3,0.3,0.3,0.5s-0.1,0.4-0.3,0.5l-11.2,6C12.2,15.6,12.1,15.6,12,15.6z M2,9l10,5.3L22,9L12,3.7L2,9z"/>
</g>
<g>
	<path class="st0" d="M17.6,23.1c-0.3,0-0.6-0.3-0.6-0.6V12.4l-5.3-2.8c-0.3-0.2-0.4-0.5-0.2-0.8c0.2-0.3,0.5-0.4,0.8-0.2l5.6,3
		c0.2,0.1,0.3,0.3,0.3,0.5v10.5C18.2,22.8,18,23.1,17.6,23.1z"/>
</g>
<g>
	<path class="st0" d="M12,20.5c-5.4,0-8.2-3.2-9-4.2c-0.2-0.2-0.3-0.5-0.3-0.8v-5.1c0-0.3,0.3-0.6,0.6-0.6S4,10.1,4,10.4v5.1
		c0.7,0.9,3.1,3.8,8,3.8c4.9,0,7.4-2.8,8-3.7l0-5.2c0-0.3,0.3-0.6,0.6-0.6s0.6,0.3,0.6,0.6v5.1c0,0.3-0.1,0.6-0.3,0.8
		C20.2,17.3,17.4,20.5,12,20.5z"/>
</g>
</svg>
