<?xml version="1.0" encoding="utf-8"?>
<!-- Generator: Adobe Illustrator 26.1.0, SVG Export Plug-In . SVG Version: 6.00 Build 0)  -->
<svg version="1.1" id="Слой_1" xmlns="http://www.w3.org/2000/svg" xmlns:xlink="http://www.w3.org/1999/xlink" x="0px" y="0px"
	 viewBox="0 0 24 24" style="enable-background:new 0 0 24 24;" xml:space="preserve">
<style type="text/css">
	.st0{fill:#383838;}
</style>
<g>
	<path class="st0" d="M5.2,19.3c-0.2,0-0.3-0.1-0.4-0.2c-0.2-0.2-0.2-0.6,0-0.8L18.3,4.8c0.2-0.2,0.6-0.2,0.8,0s0.2,0.6,0,0.8
		L5.7,19.2C5.6,19.3,5.4,19.3,5.2,19.3z"/>
</g>
<g>
	<path class="st0" d="M18.8,19.3c-0.2,0-0.3-0.1-0.4-0.2L4.8,5.7c-0.2-0.2-0.2-0.6,0-0.8s0.6-0.2,0.8,0l13.5,13.5
		c0.2,0.2,0.2,0.6,0,0.8C19.1,19.3,18.9,19.3,18.8,19.3z"/>
</g>
</svg>
