<?xml version="1.0" encoding="utf-8"?>
<!-- Generator: Adobe Illustrator 26.1.0, SVG Export Plug-In . SVG Version: 6.00 Build 0)  -->
<svg version="1.1" id="Слой_1" xmlns="http://www.w3.org/2000/svg" xmlns:xlink="http://www.w3.org/1999/xlink" x="0px" y="0px"
	 viewBox="0 0 24 24" style="enable-background:new 0 0 24 24;" xml:space="preserve">
<style type="text/css">
	.st0{fill:#383838;}
</style>
<g>
	<path class="st0" d="M12,14.1c-0.1,0-0.3-0.1-0.4-0.2l-9-8.2c-0.2-0.2-0.3-0.6,0-0.8c0.2-0.2,0.6-0.3,0.8,0l8.6,7.9l8.6-7.9
		c0.2-0.2,0.6-0.2,0.8,0c0.2,0.2,0.2,0.6,0,0.8l-9,8.2C12.3,14,12.1,14.1,12,14.1z"/>
</g>
<g>
	<path class="st0" d="M20.2,19.3H3.8c-0.4,0-0.7-0.1-1-0.4c-0.3-0.3-0.4-0.6-0.4-1V5.2c0-0.3,0.3-0.6,0.6-0.6h18
		c0.3,0,0.6,0.3,0.6,0.6V18c0,0.4-0.1,0.7-0.4,1C20.9,19.2,20.6,19.3,20.2,19.3z M3.6,5.9V18c0,0,0,0.1,0,0.1c0,0,0.1,0,0.1,0h16.5
		c0,0,0.1,0,0.1,0s0-0.1,0-0.1V5.9H3.6z"/>
</g>
<g>
	<path class="st0" d="M3.2,19.1c-0.2,0-0.3-0.1-0.4-0.2c-0.2-0.2-0.2-0.6,0-0.8l7.1-6.5c0.2-0.2,0.6-0.2,0.8,0
		c0.2,0.2,0.2,0.6,0,0.8L3.6,19C3.5,19.1,3.4,19.1,3.2,19.1z"/>
</g>
<g>
	<path class="st0" d="M20.8,19.1c-0.1,0-0.3-0.1-0.4-0.2l-7.1-6.5c-0.2-0.2-0.3-0.6,0-0.8c0.2-0.2,0.6-0.3,0.8,0l7.1,6.5
		c0.2,0.2,0.3,0.6,0,0.8C21.1,19.1,20.9,19.1,20.8,19.1z"/>
</g>
</svg>
