<?xml version="1.0" encoding="utf-8"?>
<!-- Generator: Adobe Illustrator 26.1.0, SVG Export Plug-In . SVG Version: 6.00 Build 0)  -->
<svg version="1.1" id="Слой_1" xmlns="http://www.w3.org/2000/svg" xmlns:xlink="http://www.w3.org/1999/xlink" x="0px" y="0px"
	 viewBox="0 0 24 24" style="enable-background:new 0 0 24 24;" xml:space="preserve">
<style type="text/css">
	.st0{fill:#383838;}
</style>
<g>
	<path class="st0" d="M12,19.3c-7.8,0-11-7-11-7.1c-0.1-0.2-0.1-0.3,0-0.5c0-0.1,3.2-7.1,11-7.1s11,7,11,7.1c0.1,0.2,0.1,0.3,0,0.5
		C23,12.3,19.8,19.3,12,19.3z M2.2,12c0.6,1.2,3.5,6.1,9.8,6.1c6.2,0,9.2-5,9.8-6.2c-0.6-1.2-3.5-6.1-9.8-6.1
		C5.8,5.9,2.8,10.8,2.2,12z"/>
</g>
<g>
	<path class="st0" d="M12,16.3c-2.4,0-4.4-2-4.4-4.3s2-4.4,4.4-4.4s4.3,2,4.3,4.4S14.4,16.3,12,16.3z M12,8.9
		c-1.7,0-3.1,1.4-3.1,3.1c0,1.7,1.4,3.2,3.1,3.2c1.7,0,3.2-1.4,3.2-3.2C15.2,10.3,13.7,8.9,12,8.9z"/>
</g>
</svg>
