<?xml version="1.0" encoding="utf-8"?>
<!-- Generator: Adobe Illustrator 26.1.0, SVG Export Plug-In . SVG Version: 6.00 Build 0)  -->
<svg version="1.1" id="Слой_1" xmlns="http://www.w3.org/2000/svg" xmlns:xlink="http://www.w3.org/1999/xlink" x="0px" y="0px"
	 viewBox="0 0 24 24" style="enable-background:new 0 0 24 24;" xml:space="preserve">
<style type="text/css">
	.st0{fill:#383838;}
</style>
<g>
	<path class="st0" d="M19.5,20.8c-0.2,0-0.3-0.1-0.4-0.2L4.1,4.2c-0.2-0.2-0.2-0.6,0-0.8c0.2-0.2,0.6-0.2,0.8,0l15,16.5
		c0.2,0.2,0.2,0.6,0,0.8C19.8,20.8,19.6,20.8,19.5,20.8z"/>
</g>
<g>
	<path class="st0" d="M12,16.3C12,16.3,12,16.3,12,16.3c-0.9,0-1.7-0.3-2.5-0.8c-0.7-0.5-1.3-1.2-1.6-2c-0.3-0.8-0.4-1.7-0.2-2.6
		C8,10.1,8.4,9.4,9.1,8.8c0.2-0.2,0.6-0.2,0.8,0c0.2,0.2,0.2,0.6,0,0.8c-0.5,0.4-0.8,1-0.9,1.6c-0.1,0.6-0.1,1.3,0.1,1.9
		c0.2,0.6,0.6,1.1,1.2,1.5c0.5,0.4,1.2,0.6,1.8,0.6c0.8,0,1.5-0.3,2.1-0.8c0.2-0.2,0.6-0.2,0.8,0c0.2,0.2,0.2,0.6,0,0.8
		C14.1,15.9,13.1,16.3,12,16.3z"/>
</g>
<g>
	<path class="st0" d="M12.1,19.4C12.1,19.4,12,19.4,12.1,19.4c-7.9,0-11.1-7-11.1-7.1c-0.1-0.2-0.1-0.3,0-0.5
		C1,11.6,2.7,7.9,6.7,5.9c0.3-0.2,0.7,0,0.8,0.3c0.1,0.3,0,0.7-0.3,0.8c-3,1.5-4.6,4.2-5,5c0.6,1.2,3.5,6.1,9.8,6.1
		c1.7,0,3.3-0.4,4.8-1.1c0.3-0.1,0.7,0,0.8,0.3c0.1,0.3,0,0.7-0.3,0.8C15.7,18.9,13.9,19.4,12.1,19.4z"/>
</g>
<g>
	<path class="st0" d="M19.6,16.5c-0.2,0-0.3-0.1-0.4-0.2c-0.2-0.2-0.2-0.6,0-0.8c1.5-1.4,2.4-2.8,2.7-3.4c-0.6-1.2-3.5-6.1-9.8-6.1
		c-0.6,0-1.2,0-1.8,0.2C9.8,6.1,9.5,5.8,9.5,5.5C9.4,5.2,9.6,4.9,10,4.8c0.7-0.1,1.4-0.1,2-0.2c7.8,0,11,7,11,7.1
		c0.1,0.2,0.1,0.3,0,0.5c0,0.1-1,2.2-3.1,4.1C19.8,16.4,19.7,16.5,19.6,16.5z"/>
</g>
<g>
	<path class="st0" d="M15.7,12.2c-0.3,0-0.6-0.2-0.6-0.5c-0.1-0.7-0.3-1.3-0.8-1.8c-0.5-0.5-1.1-0.8-1.7-1c-0.3-0.1-0.5-0.4-0.5-0.7
		c0.1-0.3,0.4-0.5,0.7-0.5c0.9,0.2,1.8,0.7,2.4,1.3c0.6,0.7,1,1.6,1.1,2.5C16.4,11.9,16.1,12.2,15.7,12.2
		C15.8,12.2,15.7,12.2,15.7,12.2z"/>
</g>
</svg>
