<?xml version="1.0" encoding="utf-8"?>
<!-- Generator: Adobe Illustrator 26.1.0, SVG Export Plug-In . SVG Version: 6.00 Build 0)  -->
<svg version="1.1" id="Слой_1" xmlns="http://www.w3.org/2000/svg" xmlns:xlink="http://www.w3.org/1999/xlink" x="0px" y="0px"
	 viewBox="0 0 24 24" style="enable-background:new 0 0 24 24;" xml:space="preserve">
<style type="text/css">
	.st0{fill:#383838;}
</style>
<g>
	<path class="st0" d="M21.8,9.6H2.2C2,9.6,1.7,9.4,1.7,9.2c-0.1-0.3,0-0.5,0.3-0.7l9.8-6c0.2-0.1,0.4-0.1,0.6,0l9.8,6
		c0.2,0.1,0.3,0.4,0.3,0.7S22,9.6,21.8,9.6z M4.4,8.4h15.3L12,3.7L4.4,8.4z"/>
</g>
<g>
	<path class="st0" d="M5.2,19.1c-0.3,0-0.6-0.3-0.6-0.6V11c0-0.3,0.3-0.6,0.6-0.6s0.6,0.3,0.6,0.6v7.5C5.9,18.8,5.6,19.1,5.2,19.1z"
		/>
</g>
<g>
	<path class="st0" d="M9.8,19.1c-0.3,0-0.6-0.3-0.6-0.6V11c0-0.3,0.3-0.6,0.6-0.6s0.6,0.3,0.6,0.6v7.5C10.4,18.8,10.1,19.1,9.8,19.1
		z"/>
</g>
<g>
	<path class="st0" d="M14.2,19.1c-0.3,0-0.6-0.3-0.6-0.6V11c0-0.3,0.3-0.6,0.6-0.6s0.6,0.3,0.6,0.6v7.5
		C14.8,18.8,14.6,19.1,14.2,19.1z"/>
</g>
<g>
	<path class="st0" d="M18.8,19.1c-0.3,0-0.6-0.3-0.6-0.6V11c0-0.3,0.3-0.6,0.6-0.6s0.6,0.3,0.6,0.6v7.5
		C19.3,18.8,19.1,19.1,18.8,19.1z"/>
</g>
<g>
	<path class="st0" d="M21.8,21.6H2.2c-0.3,0-0.6-0.3-0.6-0.6s0.3-0.6,0.6-0.6h19.5c0.3,0,0.6,0.3,0.6,0.6S22.1,21.6,21.8,21.6z"/>
</g>
</svg>
