<?xml version="1.0" encoding="utf-8"?>
<!-- Generator: Adobe Illustrator 26.1.0, SVG Export Plug-In . SVG Version: 6.00 Build 0)  -->
<svg version="1.1" id="Слой_1" xmlns="http://www.w3.org/2000/svg" xmlns:xlink="http://www.w3.org/1999/xlink" x="0px" y="0px"
	 viewBox="0 0 24 24" style="enable-background:new 0 0 24 24;" xml:space="preserve">
<style type="text/css">
	.st0{fill:#383838;}
</style>
<g>
	<path class="st0" d="M9.7,21.4c-0.6,0-1.1-0.4-1.3-0.9L2.9,4.7c-0.1-0.2-0.1-0.5,0-0.7C3,3.7,3.1,3.4,3.3,3.3S3.7,3,3.9,2.9
		c0.3-0.1,0.5,0,0.7,0l15.9,5.5c0.6,0.2,0.9,0.7,0.9,1.3c0,0.6-0.4,1.1-1,1.3l-7.2,2.2c0,0-0.1,0.1-0.1,0.1L11,20.5
		C10.8,21.1,10.3,21.4,9.7,21.4C9.7,21.4,9.7,21.4,9.7,21.4z M4.3,4.1l-0.2,0c0,0,0,0.2,0,0.2l5.5,15.9c0,0,0.1,0.1,0.1,0.1
		c0.1,0,0.1,0,0.1-0.1l2.2-7.2c0.1-0.2,0.2-0.4,0.3-0.6c0.2-0.2,0.4-0.3,0.6-0.3l7.1-2.2c0.1,0,0.1-0.1,0.1-0.1
		c0-0.1-0.1-0.1-0.1-0.1L4.3,4.1z"/>
</g>
</svg>
