<svg width="170" height="44" viewBox="0 0 170 44" fill="none" xmlns="http://www.w3.org/2000/svg">
<g clip-path="url(#clip0_2509_118120)">
<path d="M34.3828 29.4772V16.1655H46.4476V29.4772H43.6744V18.7997H37.1561V29.4772H34.3828Z" fill="#383838"/>
<path d="M49.7773 35.3021V16.1659H52.5506V18.1064C52.8368 17.6708 53.204 17.2943 53.6321 16.9971C54.6436 16.2536 55.8717 15.8638 57.1269 15.8878C58.8274 15.8878 60.2926 16.5485 61.5224 17.87C62.7522 19.1915 63.3671 20.8395 63.3671 22.814C63.3671 24.7915 62.7522 26.4395 61.5224 27.7579C60.2926 29.0763 58.8274 29.7371 57.1269 29.7402C55.8716 29.7648 54.6433 29.3749 53.6321 28.6308C53.212 28.3243 52.8464 27.9493 52.5506 27.5215V35.2882L49.7773 35.3021ZM53.7155 25.8993C54.0847 26.2856 54.5282 26.593 55.0195 26.803C55.5108 27.013 56.0395 27.1213 56.5738 27.1213C57.108 27.1213 57.6368 27.013 58.128 26.803C58.6193 26.593 59.0629 26.2856 59.432 25.8993C60.2076 25.0866 60.5959 24.0608 60.5969 22.8217C60.5979 21.5826 60.2096 20.5562 59.432 19.7425C59.0629 19.3563 58.6193 19.0488 58.128 18.8388C57.6368 18.6288 57.108 18.5205 56.5738 18.5205C56.0395 18.5205 55.5108 18.6288 55.0195 18.8388C54.5282 19.0488 54.0847 19.3563 53.7155 19.7425C52.9379 20.5562 52.5496 21.5826 52.5506 22.8217C52.5516 24.0608 52.9399 25.0866 53.7155 25.8993Z" fill="#383838"/>
<path d="M67.0397 27.7439C65.7007 26.4049 65.0312 24.7641 65.0312 22.8215C65.0312 20.879 65.7007 19.2377 67.0397 17.8976C68.3787 16.5587 70.0195 15.8892 71.9621 15.8892C73.9046 15.8892 75.5459 16.5587 76.886 17.8976C78.225 19.2366 78.8945 20.8779 78.8945 22.8215C78.8945 24.7651 78.225 26.4059 76.886 27.7439C75.547 29.0829 73.9057 29.7524 71.9621 29.7524C70.0185 29.7524 68.3777 29.0829 67.0397 27.7439ZM68.9957 25.9131C69.7897 26.6866 70.8543 27.1196 71.9629 27.1196C73.0714 27.1196 74.1361 26.6866 74.93 25.9131C75.7252 25.1097 76.1227 24.0797 76.1227 22.8231C76.1227 21.5665 75.7252 20.5365 74.93 19.7331C74.1361 18.9595 73.0714 18.5266 71.9629 18.5266C70.8543 18.5266 69.7897 18.9595 68.9957 19.7331C68.2005 20.5386 67.803 21.5685 67.803 22.8231C67.803 24.0776 68.2005 25.1076 68.9957 25.9131V25.9131Z" fill="#383838"/>
<path d="M81.3906 29.4772V16.1655H87.6308C88.9626 16.1655 90.0354 16.5168 90.8491 17.2192C91.6628 17.9217 92.0696 18.7719 92.0696 19.77C92.0787 20.1508 92.0095 20.5294 91.8662 20.8823C91.723 21.2353 91.5088 21.555 91.2369 21.8217C91.0058 22.0751 90.7214 22.274 90.4041 22.4042C90.8059 22.5678 91.1801 22.7924 91.5134 23.0701C91.8666 23.3884 92.1482 23.778 92.3396 24.2132C92.5311 24.6484 92.6281 25.1192 92.6243 25.5946C92.6243 26.6668 92.1896 27.582 91.3203 28.3401C90.451 29.0981 89.3144 29.4772 87.9105 29.4772H81.3906ZM84.1716 21.4339H87.4933C88.6026 21.4339 89.1573 20.9704 89.1573 20.0435C89.1573 19.1165 88.6026 18.653 87.4933 18.653H84.1654L84.1716 21.4339ZM84.1716 26.9805H87.7761C88.3858 26.9805 88.8622 26.826 89.2052 26.517C89.3673 26.3606 89.4963 26.1732 89.5844 25.9658C89.6725 25.7585 89.7179 25.5356 89.7179 25.3103C89.7179 25.0851 89.6725 24.8621 89.5844 24.6548C89.4963 24.4475 89.3673 24.2601 89.2052 24.1037C88.8622 23.7947 88.3858 23.6402 87.7761 23.6402H84.1654L84.1716 26.9805Z" fill="#383838"/>
<path d="M105.797 25.3165L107.461 27.2586C107.073 27.7522 106.603 28.1747 106.07 28.5069C104.794 29.3436 103.296 29.7779 101.771 29.7537C99.8302 29.7537 98.1894 29.0842 96.8483 27.7452C95.5073 26.4063 94.8378 24.7655 94.8398 22.8229C94.8398 20.8814 95.5006 19.2401 96.8221 17.899C97.4423 17.2508 98.1899 16.7378 99.0178 16.3922C99.8457 16.0465 100.736 15.8758 101.633 15.8905C103.519 15.8905 105.077 16.5054 106.307 17.7353C107.537 18.9651 108.151 20.5214 108.15 22.4042C108.15 22.5711 108.122 22.9043 108.067 23.4038L108.011 23.7916H97.7537C97.915 24.7243 98.409 25.5669 99.1442 26.1632C99.9218 26.8082 100.908 27.1482 101.917 27.1195C102.93 27.117 103.918 26.8078 104.751 26.2327C105.144 25.9824 105.497 25.6734 105.797 25.3165V25.3165ZM97.7537 21.434H105.242C105.018 20.4915 104.602 19.7473 103.994 19.2014C103.386 18.6556 102.6 18.3831 101.636 18.3841C99.6772 18.3841 98.383 19.4008 97.7537 21.434Z" fill="#383838"/>
<path d="M110.648 35.3021V16.1658H113.429V18.1063C113.715 17.6705 114.082 17.2938 114.511 16.997C115.522 16.2539 116.75 15.8641 118.004 15.8877C119.705 15.8877 121.17 16.5485 122.401 17.87C123.632 19.1914 124.246 20.8394 124.244 22.8139C124.244 24.7915 123.63 26.4395 122.401 27.7579C121.172 29.0763 119.707 29.737 118.004 29.7401C116.749 29.7646 115.522 29.3747 114.511 28.6308C114.09 28.3247 113.725 27.9496 113.429 27.5215V35.2882L110.648 35.3021ZM114.587 25.8993C114.956 26.2855 115.399 26.5929 115.891 26.803C116.382 27.013 116.911 27.1213 117.445 27.1213C117.979 27.1213 118.508 27.013 118.999 26.803C119.49 26.5929 119.934 26.2855 120.303 25.8993C121.08 25.0866 121.468 24.0607 121.468 22.8217C121.468 21.5826 121.08 20.5562 120.303 19.7425C119.934 19.3562 119.49 19.0488 118.999 18.8388C118.508 18.6288 117.979 18.5205 117.445 18.5205C116.911 18.5205 116.382 18.6288 115.891 18.8388C115.399 19.0488 114.956 19.3562 114.587 19.7425C113.811 20.5562 113.423 21.5826 113.423 22.8217C113.423 24.0607 113.811 25.0866 114.587 25.8993Z" fill="#383838"/>
<path d="M126.734 29.4772V16.1655H129.515V25.04L136.449 16.1655H138.944V29.4772H136.163V20.6027L129.23 29.4772H126.734Z" fill="#383838"/>
<path d="M140.75 29.4772V26.843L141.082 26.9248C141.293 26.9587 141.507 26.9773 141.72 26.9805C142.293 26.9805 142.741 26.826 143.066 26.517C143.39 26.208 143.662 25.5328 143.883 24.4791C144.104 23.4254 144.217 21.9453 144.217 20.0419V16.1655H154.47V29.4772H151.696V18.7997H146.982V20.0481C147.004 21.6511 146.892 23.253 146.649 24.8376C146.424 26.1374 146.101 27.1355 145.679 27.8318C145.252 28.5255 144.778 29.0199 144.249 29.3149C143.684 29.62 143.049 29.7728 142.406 29.7584C142.005 29.761 141.604 29.7148 141.213 29.6209C141.054 29.591 140.898 29.5428 140.75 29.4772Z" fill="#383838"/>
<path d="M157.797 29.4772V16.1655H160.57V25.04L167.504 16.1655H170.001V29.4772H167.227V20.6027L160.294 29.4772H157.797Z" fill="#383838"/>
<path d="M13.5676 34.0399C19.2982 34.0399 23.9437 29.3944 23.9437 23.6638C23.9437 17.9332 19.2982 13.2876 13.5676 13.2876C7.83697 13.2876 3.19141 17.9332 3.19141 23.6638C3.19141 29.3944 7.83697 34.0399 13.5676 34.0399Z" fill="url(#paint0_linear_2509_118120)"/>
<path d="M26.4946 17.1469L14.5858 23.1507C14.27 23.3099 13.9213 23.3928 13.5677 23.3928C13.214 23.3928 12.8653 23.3099 12.5495 23.1507L0.639189 17.1469C0.447037 17.0503 0.285511 16.9022 0.172641 16.7191C0.0597711 16.5361 0 16.3253 0 16.1102C0 15.8951 0.0597711 15.6843 0.172641 15.5012C0.285511 15.3182 0.447037 15.1701 0.639189 15.0735L12.5495 9.07121C12.8653 8.91202 13.214 8.8291 13.5677 8.8291C13.9213 8.8291 14.27 8.91202 14.5858 9.07121L26.4946 15.0735C26.6868 15.1701 26.8483 15.3182 26.9612 15.5012C27.074 15.6843 27.1338 15.8951 27.1338 16.1102C27.1338 16.3253 27.074 16.5361 26.9612 16.7191C26.8483 16.9022 26.6868 17.0503 26.4946 17.1469V17.1469Z" fill="url(#paint1_linear_2509_118120)"/>
<path d="M13.5668 13.2861C11.6447 13.2858 9.76034 13.8192 8.1236 14.8269C6.48685 15.8346 5.16207 17.277 4.29688 18.9933L12.5487 23.1509C12.8645 23.3101 13.2132 23.393 13.5668 23.393C13.9205 23.393 14.2692 23.3101 14.585 23.1509L22.8321 18.9933C21.9676 17.2775 20.6436 15.8354 19.0077 14.8277C17.3718 13.82 15.4882 13.2863 13.5668 13.2861V13.2861Z" fill="url(#paint2_linear_2509_118120)"/>
</g>
<defs>
<linearGradient id="paint0_linear_2509_118120" x1="13.5676" y1="18.0415" x2="13.5676" y2="33.8839" gradientUnits="userSpaceOnUse">
<stop stop-color="#BDFF6C"/>
<stop offset="0.93" stop-color="#28CD3F"/>
</linearGradient>
<linearGradient id="paint1_linear_2509_118120" x1="13.5665" y1="9.65213" x2="13.5665" y2="23.4242" gradientUnits="userSpaceOnUse">
<stop offset="0.01" stop-color="#BDFF6C"/>
<stop offset="0.39" stop-color="#7DEA59"/>
<stop offset="0.92" stop-color="#28CD3F"/>
</linearGradient>
<linearGradient id="paint2_linear_2509_118120" x1="13.5691" y1="13.8563" x2="13.5691" y2="23.4151" gradientUnits="userSpaceOnUse">
<stop offset="0.01" stop-color="#BDFF6C"/>
<stop offset="0.39" stop-color="#7DEA59"/>
<stop offset="0.92" stop-color="#28CD3F"/>
</linearGradient>
<clipPath id="clip0_2509_118120">
<rect width="170" height="44" fill="white"/>
</clipPath>
</defs>
</svg>
