<?xml version="1.0" encoding="utf-8"?>
<!-- Generator: Adobe Illustrator 26.1.0, SVG Export Plug-In . SVG Version: 6.00 Build 0)  -->
<svg version="1.1" id="Слой_1" xmlns="http://www.w3.org/2000/svg" xmlns:xlink="http://www.w3.org/1999/xlink" x="0px" y="0px"
	 viewBox="0 0 24 24" style="enable-background:new 0 0 24 24;" xml:space="preserve">
<style type="text/css">
	.st0{fill:#383838;}
</style>
<g>
	<path class="st0" d="M12,21.6c-5.3,0-9.6-4.3-9.6-9.6c0-5.3,4.3-9.6,9.6-9.6c5.3,0,9.6,4.3,9.6,9.6C21.6,17.3,17.3,21.6,12,21.6z
		 M12,3.6c-4.6,0-8.4,3.8-8.4,8.4s3.8,8.4,8.4,8.4s8.4-3.8,8.4-8.4S16.6,3.6,12,3.6z"/>
</g>
<g>
	<path class="st0" d="M12,18c0.6,0,1.1-0.5,1.1-1.1s-0.5-1.1-1.1-1.1s-1.1,0.5-1.1,1.1S11.4,18,12,18z"/>
</g>
<g>
	<path class="st0" d="M12,14.1c-0.3,0-0.6-0.3-0.6-0.6v-0.8c0-0.3,0.3-0.6,0.6-0.6c0.4,0,0.8-0.1,1.1-0.3c0.3-0.2,0.6-0.5,0.7-0.9
		c0.2-0.4,0.2-0.8,0.1-1.2c-0.1-0.4-0.3-0.8-0.6-1s-0.6-0.5-1-0.6c-0.4-0.1-0.8,0-1.2,0.1S10.5,8.7,10.3,9C10.1,9.3,10,9.7,10,10.1
		c0,0.3-0.3,0.6-0.6,0.6s-0.6-0.3-0.6-0.6c0-0.6,0.2-1.3,0.5-1.8c0.4-0.5,0.9-0.9,1.4-1.2C11.4,6.9,12,6.8,12.6,7
		c0.6,0.1,1.2,0.4,1.7,0.9c0.5,0.5,0.8,1,0.9,1.7c0.1,0.6,0.1,1.3-0.2,1.9c-0.2,0.6-0.7,1.1-1.2,1.4c-0.4,0.2-0.8,0.4-1.2,0.5v0.2
		C12.6,13.8,12.3,14.1,12,14.1z"/>
</g>
</svg>
