<svg width="120" height="58" viewBox="0 0 120 58" fill="none" xmlns="http://www.w3.org/2000/svg">
<path d="M44.1588 1.58519e-07H114.484C115.208 -0.000181735 115.924 0.156175 116.582 0.458363C117.24 0.76055 117.825 1.20143 118.297 1.75081C118.769 2.30018 119.117 2.94507 119.316 3.64131C119.516 4.33755 119.563 5.06869 119.453 5.78466L111.591 57.2455H31.0945L39.1893 4.28215C39.3681 3.09183 39.968 2.00514 40.8799 1.21941C41.7917 0.433676 42.9551 0.00101594 44.1588 1.58519e-07Z" fill="url(#paint0_linear_2070_137623)"/>
<path d="M0 57.4814H111.576" stroke="#383838" stroke-miterlimit="10"/>
<path d="M37.2334 37.3766C29.7857 37.3766 23.748 31.339 23.748 23.8912C23.748 16.4434 29.7857 10.4058 37.2334 10.4058C44.6812 10.4058 50.7189 16.4434 50.7189 23.8912C50.7189 31.339 44.6812 37.3766 37.2334 37.3766Z" stroke="#383838" stroke-linecap="round" stroke-linejoin="round"/>
<path d="M27.5984 33.322L17.8626 43.0578" stroke="#383838" stroke-linecap="round" stroke-linejoin="round"/>
<defs>
<linearGradient id="paint0_linear_2070_137623" x1="88.6462" y1="5.84928" x2="87.371" y2="30.5136" gradientUnits="userSpaceOnUse">
<stop stop-color="#FBFFDE"/>
<stop offset="1" stop-color="#B6FC86"/>
</linearGradient>
</defs>
</svg>
