<?xml version="1.0" encoding="utf-8"?>
<!-- Generator: Adobe Illustrator 26.1.0, SVG Export Plug-In . SVG Version: 6.00 Build 0)  -->
<svg version="1.1" id="Слой_1" xmlns="http://www.w3.org/2000/svg" xmlns:xlink="http://www.w3.org/1999/xlink" x="0px" y="0px"
	 viewBox="0 0 24 24" style="enable-background:new 0 0 24 24;" xml:space="preserve">
<style type="text/css">
	.st0{fill:#383838;}
</style>
<g>
	<path class="st0" d="M13.5,17.1H5.2c-0.3,0-0.6-0.3-0.6-0.6s0.3-0.6,0.6-0.6h8.2c0.3,0,0.6,0.3,0.6,0.6S13.8,17.1,13.5,17.1z"/>
</g>
<g>
	<path class="st0" d="M8.2,20.8c-0.3,0-0.6-0.3-0.6-0.6v-6.2H5.2c-0.3,0-0.6-0.3-0.6-0.6s0.3-0.6,0.6-0.6h2.4V3.8
		c0-0.3,0.3-0.6,0.6-0.6h5.6c1.5,0,2.8,0.6,3.9,1.6c1,1,1.6,2.4,1.6,3.9s-0.6,2.8-1.6,3.9c-1,1-2.4,1.6-3.9,1.6h-5v6.2
		C8.9,20.6,8.6,20.8,8.2,20.8z M8.9,12.9h5c1.1,0,2.2-0.4,3-1.3c0.8-0.8,1.3-1.9,1.3-3s-0.4-2.2-1.3-3c-0.8-0.8-1.9-1.3-3-1.3h-5
		V12.9z"/>
</g>
</svg>
