<?xml version="1.0" encoding="utf-8"?>
<!-- Generator: Adobe Illustrator 26.1.0, SVG Export Plug-In . SVG Version: 6.00 Build 0)  -->
<svg version="1.1" id="Слой_1" xmlns="http://www.w3.org/2000/svg" xmlns:xlink="http://www.w3.org/1999/xlink" x="0px" y="0px"
	 viewBox="0 0 24 24" style="enable-background:new 0 0 24 24;" xml:space="preserve">
<style type="text/css">
	.st0{fill:#383838;}
</style>
<g>
	<path class="st0" d="M10.9,19.3c-4.7,0-8.5-3.8-8.5-8.5c0-4.7,3.8-8.5,8.5-8.5c4.7,0,8.5,3.8,8.5,8.5
		C19.3,15.5,15.5,19.3,10.9,19.3z M10.9,3.6c-4,0-7.3,3.3-7.3,7.3c0,4,3.3,7.3,7.3,7.3c4,0,7.3-3.3,7.3-7.3
		C18.2,6.9,14.9,3.6,10.9,3.6z"/>
</g>
<g>
	<path class="st0" d="M21,21.6c-0.2,0-0.3-0.1-0.4-0.2L16,16.9c-0.2-0.2-0.2-0.6,0-0.8c0.2-0.2,0.6-0.2,0.8,0l4.6,4.6
		c0.2,0.2,0.2,0.6,0,0.8C21.3,21.5,21.2,21.6,21,21.6z"/>
</g>
</svg>
