<?xml version="1.0" encoding="utf-8"?>
<!-- Generator: Adobe Illustrator 26.1.0, SVG Export Plug-In . SVG Version: 6.00 Build 0)  -->
<svg version="1.1" id="Слой_1" xmlns="http://www.w3.org/2000/svg" xmlns:xlink="http://www.w3.org/1999/xlink" x="0px" y="0px"
	 viewBox="0 0 24 24" style="enable-background:new 0 0 24 24;" xml:space="preserve">
<style type="text/css">
	.st0{fill:#383838;}
</style>
<g>
	<path class="st0" d="M17.6,21.6c-0.3,0-0.5-0.1-0.7-0.2l-4.7-3l0,0c0,0-0.1,0-0.1,0l-4.5,2.8c-0.5,0.3-1.2,0.3-1.7-0.1
		c-0.5-0.4-0.8-1-0.6-1.7l1.3-5c0,0,0-0.1,0-0.1c0,0,0-0.1-0.1-0.1l-4.2-3.5c-0.4-0.4-0.6-1-0.4-1.5c0.2-0.5,0.7-0.9,1.2-1l5.5-0.4
		c0,0,0.1,0,0.1,0c0,0,0,0,0.1-0.1l2.1-5.2c0.1-0.3,0.3-0.5,0.5-0.6c0.5-0.3,1.1-0.3,1.6,0c0.2,0.2,0.4,0.4,0.5,0.7l2.1,5.2
		c0,0,0.1,0.1,0.1,0.1c0,0,0.1,0,0.1,0L21,8.2c0.6,0,1.1,0.4,1.2,1c0.2,0.6,0,1.2-0.4,1.5l-4.2,3.5c0,0-0.1,0.1-0.1,0.1
		c0,0,0,0.1,0,0.1l1.4,5.4c0.1,0.6-0.1,1.2-0.5,1.5C18.1,21.5,17.8,21.6,17.6,21.6z M12.7,17.4l4.7,3c0.1,0,0.1,0,0.2,0
		c0,0,0.1-0.1,0.1-0.2l-1.4-5.4c-0.1-0.3-0.1-0.5,0-0.8c0.1-0.3,0.2-0.5,0.4-0.6l4.2-3.5c0.1-0.1,0.1-0.2,0.1-0.2
		c0-0.1-0.1-0.1-0.2-0.1l-5.5-0.4c-0.3,0-0.5-0.1-0.7-0.3c-0.2-0.2-0.4-0.4-0.5-0.6L12.2,3c0-0.1,0-0.1-0.1-0.1c-0.1,0-0.1,0-0.2,0
		c0,0-0.1,0-0.1,0.1L9.8,8.2C9.7,8.4,9.5,8.6,9.3,8.8C9.1,8.9,8.8,9,8.6,9.1L3,9.4c-0.1,0-0.1,0.1-0.2,0.1c0,0,0,0.2,0.1,0.2
		l4.2,3.5c0.2,0.2,0.4,0.4,0.4,0.6c0.1,0.3,0.1,0.5,0,0.8l-1.3,5c-0.1,0.2,0.1,0.4,0.1,0.4c0.1,0,0.2,0.1,0.4,0l4.4-2.8
		C11.7,17.1,12.3,17.1,12.7,17.4L12.7,17.4z"/>
</g>
</svg>
