<?xml version="1.0" encoding="utf-8"?>
<!-- Generator: Adobe Illustrator 26.1.0, SVG Export Plug-In . SVG Version: 6.00 Build 0)  -->
<svg version="1.1" id="Слой_1" xmlns="http://www.w3.org/2000/svg" xmlns:xlink="http://www.w3.org/1999/xlink" x="0px" y="0px"
	 viewBox="0 0 24 24" style="enable-background:new 0 0 24 24;" xml:space="preserve">
<style type="text/css">
	.st0{fill:#383838;}
</style>
<g>
	<path class="st0" d="M3,14.1c-0.3,0-0.6-0.3-0.6-0.6V6c0-0.3,0.3-0.6,0.6-0.6S3.6,5.7,3.6,6v7.5C3.6,13.8,3.3,14.1,3,14.1z"/>
</g>
<g>
	<path class="st0" d="M5.1,20.8c-0.1,0-0.2,0-0.3-0.1c-0.3-0.2-0.4-0.6-0.2-0.8c0.8-1.2,1.9-2.3,3.2-3c2.6-1.4,5.9-1.4,8.4,0
		c1.3,0.7,2.4,1.7,3.2,3c0.2,0.3,0.1,0.6-0.2,0.8c-0.3,0.2-0.7,0.1-0.8-0.2c-0.7-1.1-1.7-1.9-2.8-2.6c-2.2-1.2-5.1-1.2-7.3,0
		c-1.1,0.6-2.1,1.5-2.8,2.6C5.5,20.8,5.3,20.8,5.1,20.8z"/>
</g>
<g>
	<path class="st0" d="M12,9.6c-0.1,0-0.1,0-0.2,0l-9-3C2.6,6.5,2.4,6.3,2.4,6s0.2-0.5,0.4-0.6l9-3c0.1,0,0.3,0,0.4,0l9,3
		c0.2,0.1,0.4,0.3,0.4,0.6s-0.2,0.5-0.4,0.6l-9,3C12.1,9.6,12.1,9.6,12,9.6z M4.9,6L12,8.4L19.1,6L12,3.6L4.9,6z"/>
</g>
<g>
	<path class="st0" d="M12,17.1c-1.1,0-2.2-0.3-3.2-1c-1-0.6-1.7-1.5-2.2-2.5c-0.5-1-0.6-2.2-0.4-3.3c0.2-1.1,0.7-2.2,1.5-3
		c0.2-0.2,0.6-0.3,0.8,0c0.2,0.2,0.3,0.6,0,0.8c-0.6,0.7-1,1.5-1.2,2.4c-0.1,0.9,0,1.8,0.3,2.6c0.4,0.8,1,1.5,1.7,2
		c1.5,1,3.6,1,5.1,0c0.8-0.5,1.4-1.2,1.7-2c0.4-0.8,0.5-1.7,0.3-2.6c-0.1-0.9-0.5-1.7-1.2-2.4c-0.2-0.2-0.2-0.6,0-0.8s0.6-0.2,0.8,0
		c0.8,0.8,1.3,1.9,1.5,3c0.2,1.1,0,2.3-0.4,3.3c-0.5,1-1.2,1.9-2.2,2.5S13.1,17.1,12,17.1z"/>
</g>
</svg>
