<?xml version="1.0" encoding="utf-8"?>
<!-- Generator: Adobe Illustrator 26.1.0, SVG Export Plug-In . SVG Version: 6.00 Build 0)  -->
<svg version="1.1" id="Слой_1" xmlns="http://www.w3.org/2000/svg" xmlns:xlink="http://www.w3.org/1999/xlink" x="0px" y="0px"
	 viewBox="0 0 24 24" style="enable-background:new 0 0 24 24;" xml:space="preserve">
<style type="text/css">
	.st0{fill:#383838;}
</style>
<g>
	<path class="st0" d="M17,21.6H7c-0.9,0-1.6-0.7-1.6-1.6V7c0-0.6,0.3-1.1,0.8-1.4l5-2.8c0.5-0.3,1.1-0.3,1.6,0l5,2.8c0,0,0,0,0,0
		c0.5,0.3,0.8,0.8,0.8,1.4v13C18.6,20.9,17.9,21.6,17,21.6z M12,3.7c-0.1,0-0.1,0-0.2,0.1l-5,2.8C6.7,6.7,6.6,6.8,6.6,7v13
		c0,0.2,0.2,0.4,0.4,0.4h10c0.2,0,0.4-0.2,0.4-0.4V7c0-0.1-0.1-0.3-0.2-0.3l-5-2.8C12.1,3.8,12.1,3.7,12,3.7z"/>
</g>
<g>
	<path class="st0" d="M14.3,18.3c-0.1,0-0.2,0-0.3-0.1l-2-1l-2,1c-0.3,0.2-0.7,0-0.8-0.3c-0.1-0.3,0-0.7,0.3-0.8l2.3-1.1
		c0.2-0.1,0.4-0.1,0.5,0l2.3,1.1c0.3,0.1,0.4,0.5,0.3,0.8C14.7,18.2,14.5,18.3,14.3,18.3z M14.3,13.8c-0.1,0-0.2,0-0.3-0.1l-2-1
		l-2,1c-0.3,0.2-0.7,0-0.8-0.3s0-0.7,0.3-0.8l2.3-1.1c0.2-0.1,0.4-0.1,0.5,0l2.3,1.1c0.3,0.1,0.4,0.5,0.3,0.8
		C14.7,13.7,14.5,13.8,14.3,13.8z M14.3,9.1c-0.1,0-0.2,0-0.3-0.1l-2-1l-2,1c-0.3,0.1-0.7,0-0.8-0.3C9.1,8.5,9.2,8.1,9.5,8l2.3-1.1
		c0.2-0.1,0.4-0.1,0.5,0L14.5,8c0.3,0.1,0.4,0.5,0.3,0.8C14.7,9,14.5,9.1,14.3,9.1z"/>
</g>
</svg>
