<?xml version="1.0" encoding="utf-8"?>
<!-- Generator: Adobe Illustrator 26.1.0, SVG Export Plug-In . SVG Version: 6.00 Build 0)  -->
<svg version="1.1" id="Слой_1" xmlns="http://www.w3.org/2000/svg" xmlns:xlink="http://www.w3.org/1999/xlink" x="0px" y="0px"
	 viewBox="0 0 24 24" style="enable-background:new 0 0 24 24;" xml:space="preserve">
<style type="text/css">
	.st0{fill:#383838;}
</style>
<g>
	<path class="st0" d="M20.2,12.6H3.8c-0.3,0-0.6-0.3-0.6-0.6s0.3-0.6,0.6-0.6h16.5c0.3,0,0.6,0.3,0.6,0.6S20.6,12.6,20.2,12.6z"/>
</g>
<g>
	<path class="st0" d="M10.5,19.3c-0.2,0-0.3-0.1-0.4-0.2l-6.8-6.7c-0.2-0.2-0.2-0.6,0-0.8l6.8-6.8c0.2-0.2,0.6-0.2,0.8,0
		s0.2,0.6,0,0.8L4.6,12l6.3,6.3c0.2,0.2,0.2,0.6,0,0.8C10.8,19.3,10.7,19.3,10.5,19.3z"/>
</g>
</svg>
