<?xml version="1.0" encoding="utf-8"?>
<!-- Generator: Adobe Illustrator 26.1.0, SVG Export Plug-In . SVG Version: 6.00 Build 0)  -->
<svg version="1.1" id="Слой_1" xmlns="http://www.w3.org/2000/svg" xmlns:xlink="http://www.w3.org/1999/xlink" x="0px" y="0px"
	 viewBox="0 0 24 24" style="enable-background:new 0 0 24 24;" xml:space="preserve">
<style type="text/css">
	.st0{fill:#383838;}
</style>
<g>
	<path class="st0" d="M7.5,20.1c-0.2,0-0.3-0.1-0.4-0.2l-3-3c-0.2-0.2-0.2-0.6,0-0.8c0.2-0.2,0.6-0.2,0.8,0l2.6,2.6l2.6-2.6
		c0.2-0.2,0.6-0.2,0.8,0c0.2,0.2,0.2,0.6,0,0.8l-3,3C7.8,20,7.7,20.1,7.5,20.1z"/>
</g>
<g>
	<path class="st0" d="M7.5,20.1c-0.3,0-0.6-0.3-0.6-0.6v-15c0-0.3,0.3-0.6,0.6-0.6s0.6,0.3,0.6,0.6v15C8.1,19.8,7.8,20.1,7.5,20.1z"
		/>
</g>
<g>
	<path class="st0" d="M19.5,8.1c-0.2,0-0.3-0.1-0.4-0.2l-2.6-2.6l-2.6,2.6c-0.2,0.2-0.6,0.2-0.8,0c-0.2-0.2-0.2-0.6,0-0.8l3-3
		c0.2-0.2,0.6-0.2,0.8,0l3,3c0.2,0.2,0.2,0.6,0,0.8C19.8,8,19.7,8.1,19.5,8.1z"/>
</g>
<g>
	<path class="st0" d="M16.5,20.1c-0.3,0-0.6-0.3-0.6-0.6v-15c0-0.3,0.3-0.6,0.6-0.6s0.6,0.3,0.6,0.6v15
		C17.1,19.8,16.8,20.1,16.5,20.1z"/>
</g>
</svg>
