<?xml version="1.0" encoding="utf-8"?>
<!-- Generator: Adobe Illustrator 26.1.0, SVG Export Plug-In . SVG Version: 6.00 Build 0)  -->
<svg version="1.1" id="Слой_1" xmlns="http://www.w3.org/2000/svg" xmlns:xlink="http://www.w3.org/1999/xlink" x="0px" y="0px"
	 viewBox="0 0 24 24" style="enable-background:new 0 0 24 24;" xml:space="preserve">
<style type="text/css">
	.st0{fill:#383838;}
</style>
<g>
	<path class="st0" d="M22.5,16.3c-0.3,0-0.6-0.3-0.6-0.6v-5.2c0-0.6-0.3-1.2-0.7-1.7c-0.5-0.5-1.1-0.7-1.7-0.7h-9.1v7.6
		c0,0.3-0.3,0.6-0.6,0.6s-0.6-0.3-0.6-0.6V7.5c0-0.3,0.3-0.6,0.6-0.6h9.8c1,0,1.9,0.4,2.5,1.1c0.7,0.7,1.1,1.6,1.1,2.5v5.2
		C23.1,16.1,22.8,16.3,22.5,16.3z"/>
</g>
<g>
	<path class="st0" d="M1.5,20.1c-0.3,0-0.6-0.3-0.6-0.6v-15c0-0.3,0.3-0.6,0.6-0.6s0.6,0.3,0.6,0.6v15C2.1,19.8,1.8,20.1,1.5,20.1z"
		/>
</g>
<g>
	<path class="st0" d="M22.5,20.1c-0.3,0-0.6-0.3-0.6-0.6v-3.2H1.5c-0.3,0-0.6-0.3-0.6-0.6s0.3-0.6,0.6-0.6h21c0.3,0,0.6,0.3,0.6,0.6
		v3.8C23.1,19.8,22.8,20.1,22.5,20.1z"/>
</g>
<g>
	<path class="st0" d="M9.8,8.1H1.5c-0.3,0-0.6-0.3-0.6-0.6s0.3-0.6,0.6-0.6h8.2c0.3,0,0.6,0.3,0.6,0.6S10.1,8.1,9.8,8.1z"/>
</g>
</svg>
