<?xml version="1.0" encoding="utf-8"?>
<!-- Generator: Adobe Illustrator 26.1.0, SVG Export Plug-In . SVG Version: 6.00 Build 0)  -->
<svg version="1.1" id="Слой_1" xmlns="http://www.w3.org/2000/svg" xmlns:xlink="http://www.w3.org/1999/xlink" x="0px" y="0px"
	 viewBox="0 0 24 24" style="enable-background:new 0 0 24 24;" xml:space="preserve">
<style type="text/css">
	.st0{fill:#383838;}
</style>
<g>
	<path class="st0" d="M20.2,20.8H3.8c-0.7,0-1.4-0.6-1.4-1.3v-12c0-0.7,0.6-1.4,1.4-1.4h16.5c0.7,0,1.3,0.6,1.3,1.4v12
		C21.6,20.2,21,20.8,20.2,20.8z M3.8,7.4c-0.1,0-0.1,0.1-0.1,0.1v12c0,0.1,0.1,0.2,0.1,0.2h16.5c0.1,0,0.2-0.1,0.2-0.2v-12
		c0-0.1-0.1-0.1-0.2-0.1H3.8z"/>
</g>
<g>
	<path class="st0" d="M15.8,7.4c-0.3,0-0.6-0.3-0.6-0.6V5.2c0-0.2-0.1-0.5-0.3-0.6c-0.2-0.2-0.4-0.3-0.6-0.3H9.8
		c-0.2,0-0.5,0.1-0.6,0.3S8.9,5,8.9,5.2v1.5c0,0.3-0.3,0.6-0.6,0.6S7.6,7.1,7.6,6.8V5.2c0-0.6,0.2-1.1,0.6-1.5
		c0.4-0.4,0.9-0.6,1.5-0.6h4.5c0.6,0,1.1,0.2,1.5,0.6c0.4,0.4,0.6,0.9,0.6,1.5v1.5C16.3,7.1,16.1,7.4,15.8,7.4z"/>
</g>
<g>
	<path class="st0" d="M12,14.8c-3.2,0-6.4-0.9-9.3-2.5c-0.3-0.2-0.4-0.5-0.2-0.8c0.2-0.3,0.5-0.4,0.8-0.2c2.6,1.5,5.6,2.3,8.7,2.3
		c0,0,0,0,0,0c3,0,6-0.8,8.7-2.3c0.3-0.2,0.7-0.1,0.8,0.2s0.1,0.7-0.2,0.8C18.5,14,15.3,14.8,12,14.8C12,14.9,12,14.8,12,14.8z"/>
</g>
<g>
	<path class="st0" d="M13.1,11.9h-2.2c-0.3,0-0.6-0.3-0.6-0.6s0.3-0.6,0.6-0.6h2.2c0.3,0,0.6,0.3,0.6,0.6S13.5,11.9,13.1,11.9z"/>
</g>
</svg>
