<?xml version="1.0" encoding="utf-8"?>
<!-- Generator: Adobe Illustrator 26.1.0, SVG Export Plug-In . SVG Version: 6.00 Build 0)  -->
<svg version="1.1" id="Слой_1" xmlns="http://www.w3.org/2000/svg" xmlns:xlink="http://www.w3.org/1999/xlink" x="0px" y="0px"
	 viewBox="0 0 24 24" style="enable-background:new 0 0 24 24;" xml:space="preserve">
<style type="text/css">
	.st0{fill:#383838;}
</style>
<g>
	<path class="st0" d="M4.1,20.1c-0.3,0-0.6-0.3-0.6-0.6v-6.8c0-0.3,0.3-0.6,0.6-0.6h5.2c0.3,0,0.6,0.3,0.6,0.6
		c0,0.3-0.3,0.6-0.6,0.6H4.7v6.2C4.7,19.8,4.5,20.1,4.1,20.1z"/>
</g>
<g>
	<path class="st0" d="M21.4,20.1H2.6c-0.3,0-0.6-0.3-0.6-0.6s0.3-0.6,0.6-0.6h18.8c0.3,0,0.6,0.3,0.6,0.6S21.7,20.1,21.4,20.1z"/>
</g>
<g>
	<path class="st0" d="M9.4,20.1c-0.3,0-0.6-0.3-0.6-0.6V8.2c0-0.3,0.3-0.6,0.6-0.6h5.2c0.3,0,0.6,0.3,0.6,0.6S15,8.9,14.6,8.9H10
		v10.6C10,19.8,9.7,20.1,9.4,20.1z"/>
</g>
<g>
	<path class="st0" d="M19.9,20.1h-5.2c-0.3,0-0.6-0.3-0.6-0.6V3.8c0-0.3,0.3-0.6,0.6-0.6h5.2c0.3,0,0.6,0.3,0.6,0.6v15.8
		C20.5,19.8,20.2,20.1,19.9,20.1z M15.2,18.9h4.1V4.4h-4.1V18.9z"/>
</g>
</svg>
