<?xml version="1.0" encoding="utf-8"?>
<!-- Generator: Adobe Illustrator 26.1.0, SVG Export Plug-In . SVG Version: 6.00 Build 0)  -->
<svg version="1.1" id="Слой_1" xmlns="http://www.w3.org/2000/svg" xmlns:xlink="http://www.w3.org/1999/xlink" x="0px" y="0px"
	 viewBox="0 0 24 24" style="enable-background:new 0 0 24 24;" xml:space="preserve">
<style type="text/css">
	.st0{fill:#383838;}
</style>
<g>
	<path class="st0" d="M12,21.6c-1.6,0-3.2-0.4-4.7-1.2l-2.9,0.8c-0.2,0.1-0.5,0.1-0.7,0c-0.2-0.1-0.4-0.2-0.6-0.4
		c-0.2-0.2-0.3-0.4-0.3-0.6c-0.1-0.2-0.1-0.5,0-0.7l0.8-2.9c-1.1-2-1.5-4.2-1-6.5C3,7.9,4.3,5.9,6.1,4.4c1.8-1.4,4.1-2.1,6.5-2
		c2.3,0.1,4.5,1.1,6.2,2.8c1.7,1.7,2.6,3.8,2.8,6.2c0.1,2.3-0.6,4.6-2,6.5c-1.4,1.8-3.5,3.1-5.8,3.5C13.2,21.5,12.6,21.6,12,21.6z
		 M7.4,19.1c0.1,0,0.2,0,0.3,0.1c1.8,1,3.8,1.4,5.8,1c2-0.4,3.8-1.5,5.1-3.1c1.3-1.6,1.9-3.6,1.7-5.7c-0.1-2-1-4-2.4-5.4
		c-1.4-1.4-3.4-2.3-5.4-2.4c-2-0.1-4.1,0.5-5.7,1.7c-1.6,1.3-2.7,3.1-3.1,5.1s0,4.1,1,5.8c0.1,0.1,0.1,0.3,0.1,0.5L4,19.9
		c0,0,0,0.1,0,0.1l0,0c0,0,0.1,0,0.1,0l0,0l3.1-0.9C7.3,19.2,7.4,19.1,7.4,19.1z"/>
</g>
<g>
	<path class="st0" d="M12,13.1c0.6,0,1.1-0.5,1.1-1.1s-0.5-1.1-1.1-1.1s-1.1,0.5-1.1,1.1S11.4,13.1,12,13.1z"/>
</g>
<g>
	<path class="st0" d="M7.5,13.1c0.6,0,1.1-0.5,1.1-1.1s-0.5-1.1-1.1-1.1S6.4,11.4,6.4,12S6.9,13.1,7.5,13.1z"/>
</g>
<g>
	<path class="st0" d="M16.5,13.1c0.6,0,1.1-0.5,1.1-1.1s-0.5-1.1-1.1-1.1s-1.1,0.5-1.1,1.1S15.9,13.1,16.5,13.1z"/>
</g>
</svg>
