<?xml version="1.0" encoding="utf-8"?>
<!-- Generator: Adobe Illustrator 26.1.0, SVG Export Plug-In . SVG Version: 6.00 Build 0)  -->
<svg version="1.1" id="Слой_1" xmlns="http://www.w3.org/2000/svg" xmlns:xlink="http://www.w3.org/1999/xlink" x="0px" y="0px"
	 viewBox="0 0 24 24" style="enable-background:new 0 0 24 24;" xml:space="preserve">
<style type="text/css">
	.st0{clip-path:url(#SVGID_00000002368090390893940600000017205567459643776922_);}
	.st1{fill:#383838;}
	.st2{fill:#FFFFFF;}
</style>
<g>
	<defs>
		<rect id="SVGID_1_" width="24" height="24"/>
	</defs>
	<clipPath id="SVGID_00000142153215827680123390000010304265163794943626_">
		<use xlink:href="#SVGID_1_"  style="overflow:visible;"/>
	</clipPath>
	<g style="clip-path:url(#SVGID_00000142153215827680123390000010304265163794943626_);">
		<g>
			<path class="st1" d="M5.1,18.9c-0.9-0.9-0.3-2.7-0.7-3.7c-0.4-1.1-2.1-2-2.1-3.2s1.7-2.1,2.1-3.2C4.8,7.7,4.2,6,5.1,5.1
				C6,4.2,7.8,4.8,8.8,4.4c1.1-0.4,2-2.1,3.2-2.1s2.1,1.7,3.2,2.1c1.1,0.5,2.9-0.1,3.7,0.7c0.9,0.9,0.3,2.7,0.7,3.7
				c0.4,1.1,2.1,2,2.1,3.2s-1.7,2.1-2.1,3.2c-0.5,1.1,0.1,2.9-0.7,3.7c-0.9,0.9-2.7,0.3-3.7,0.7c-1.1,0.4-2,2.1-3.2,2.1
				s-2.1-1.7-3.2-2.1C7.7,19.2,6,19.8,5.1,18.9z"/>
		</g>
		<g>
			<path class="st2" d="M10.6,15.8c-0.2,0-0.4-0.1-0.5-0.2l-2.7-2.6c-0.3-0.3-0.3-0.8,0-1.1c0.3-0.3,0.8-0.3,1.1,0l2.2,2.1l5-4.8
				c0.3-0.3,0.8-0.3,1.1,0c0.3,0.3,0.3,0.8,0,1.1l-5.5,5.3C11,15.7,10.8,15.8,10.6,15.8z"/>
		</g>
	</g>
</g>
</svg>
