<?xml version="1.0" encoding="utf-8"?>
<!-- Generator: Adobe Illustrator 26.1.0, SVG Export Plug-In . SVG Version: 6.00 Build 0)  -->
<svg version="1.1" id="Слой_1" xmlns="http://www.w3.org/2000/svg" xmlns:xlink="http://www.w3.org/1999/xlink" x="0px" y="0px"
	 viewBox="0 0 24 24" style="enable-background:new 0 0 24 24;" xml:space="preserve">
<style type="text/css">
	.st0{fill:#383838;}
</style>
<g>
	<path class="st0" d="M13.9,16.7H3.8c-0.3,0-0.6-0.3-0.6-0.6s0.3-0.6,0.6-0.6h10.1c0.3,0,0.6,0.3,0.6,0.6S14.2,16.7,13.9,16.7z"/>
</g>
<g>
	<path class="st0" d="M20.2,16.7h-2.6c-0.3,0-0.6-0.3-0.6-0.6s0.3-0.6,0.6-0.6h2.6c0.3,0,0.6,0.3,0.6,0.6S20.6,16.7,20.2,16.7z"/>
</g>
<g>
	<path class="st0" d="M15.8,18.6c-1.4,0-2.5-1.1-2.5-2.5s1.1-2.5,2.5-2.5s2.5,1.1,2.5,2.5S17.1,18.6,15.8,18.6z M15.8,14.8
		c-0.7,0-1.3,0.6-1.3,1.3s0.6,1.3,1.3,1.3s1.3-0.6,1.3-1.3S16.5,14.8,15.8,14.8z"/>
</g>
<g>
	<path class="st0" d="M7.9,8.5H3.8c-0.3,0-0.6-0.3-0.6-0.6s0.3-0.6,0.6-0.6h4.1c0.3,0,0.6,0.3,0.6,0.6S8.2,8.5,7.9,8.5z"/>
</g>
<g>
	<path class="st0" d="M20.2,8.5h-8.6c-0.3,0-0.6-0.3-0.6-0.6s0.3-0.6,0.6-0.6h8.6c0.3,0,0.6,0.3,0.6,0.6S20.6,8.5,20.2,8.5z"/>
</g>
<g>
	<path class="st0" d="M9.8,10.4c-1.4,0-2.5-1.1-2.5-2.5s1.1-2.5,2.5-2.5s2.5,1.1,2.5,2.5S11.1,10.4,9.8,10.4z M9.8,6.6
		C9,6.6,8.5,7.2,8.5,7.9S9,9.1,9.8,9.1S11,8.6,11,7.9S10.5,6.6,9.8,6.6z"/>
</g>
</svg>
