<?xml version="1.0" encoding="utf-8"?>
<!-- Generator: Adobe Illustrator 26.1.0, SVG Export Plug-In . SVG Version: 6.00 Build 0)  -->
<svg version="1.1" id="Слой_1" xmlns="http://www.w3.org/2000/svg" xmlns:xlink="http://www.w3.org/1999/xlink" x="0px" y="0px"
	 viewBox="0 0 24 24" style="enable-background:new 0 0 24 24;" xml:space="preserve">
<style type="text/css">
	.st0{fill:#383838;}
</style>
<g>
	<path class="st0" d="M12,20.9l-0.3-0.2C11.3,20.6,2,15.3,2,8.6c0-1.3,0.4-2.5,1.2-3.5c0.8-1,1.9-1.6,3.2-1.9C7.7,3,9,3.2,10.1,3.8
		c0.8,0.4,1.4,1,1.9,1.7c0.5-0.7,1.2-1.3,1.9-1.7C15,3.2,16.3,3,17.6,3.3c1.2,0.2,2.4,0.9,3.2,1.9c0.8,1,1.2,2.2,1.2,3.5
		c0,6.7-9.3,11.9-9.7,12.1L12,20.9z M7.5,4.4c-0.3,0-0.6,0-0.8,0.1c-1,0.2-1.8,0.7-2.5,1.5c-0.6,0.8-1,1.7-1,2.7
		c0,5.3,7.2,10,8.8,10.9c1.6-0.9,8.8-5.6,8.8-10.9c0-1-0.3-1.9-1-2.7c-0.6-0.8-1.5-1.3-2.5-1.5c-1-0.2-2,0-2.8,0.4S12.9,6.1,12.6,7
		L12,8.3L11.4,7c-0.4-0.9-1.1-1.7-1.9-2.1C8.9,4.5,8.2,4.4,7.5,4.4z"/>
</g>
</svg>
