<?xml version="1.0" encoding="utf-8"?>
<!-- Generator: Adobe Illustrator 26.1.0, SVG Export Plug-In . SVG Version: 6.00 Build 0)  -->
<svg version="1.1" id="Слой_1" xmlns="http://www.w3.org/2000/svg" xmlns:xlink="http://www.w3.org/1999/xlink" x="0px" y="0px"
	 viewBox="0 0 24 24" style="enable-background:new 0 0 24 24;" xml:space="preserve">
<style type="text/css">
	.st0{fill:#383838;}
</style>
<g>
	<path class="st0" d="M21,16.3c-0.3,0-0.6-0.3-0.6-0.6V5.2c0,0,0-0.1,0-0.1c0,0-0.1,0-0.1,0H3.8c0,0-0.1,0-0.1,0s0,0.1,0,0.1v10.5
		c0,0.3-0.3,0.6-0.6,0.6s-0.6-0.3-0.6-0.6V5.2c0-0.4,0.1-0.7,0.4-1s0.6-0.4,1-0.4h16.5c0.4,0,0.7,0.1,1,0.4c0.3,0.3,0.4,0.6,0.4,1
		v10.5C21.6,16.1,21.3,16.3,21,16.3z"/>
</g>
<g>
	<path class="st0" d="M22.5,19.3h-21c-0.3,0-0.6-0.3-0.6-0.6s0.3-0.6,0.6-0.6h21c0.3,0,0.6,0.3,0.6,0.6S22.8,19.3,22.5,19.3z"/>
</g>
<g>
	<path class="st0" d="M17.2,19.3c-0.3,0-0.6-0.3-0.6-0.6v-2.4h-4.8v2.4c0,0.3-0.3,0.6-0.6,0.6s-0.6-0.3-0.6-0.6v-3
		c0-0.3,0.3-0.6,0.6-0.6h6c0.3,0,0.6,0.3,0.6,0.6v3C17.8,19.1,17.6,19.3,17.2,19.3z"/>
</g>
</svg>
