<svg width="20" height="20" viewBox="0 0 20 20" fill="none" xmlns="http://www.w3.org/2000/svg">
<path d="M2.91963 3.71895L7.49776 16.9455C7.69307 17.5158 8.50557 17.5002 8.68526 16.9221L10.529 10.9377C10.5568 10.8399 10.6096 10.751 10.6822 10.6797C10.7548 10.6085 10.8447 10.5574 10.9431 10.5315L16.9196 8.6877C17.4978 8.50801 17.5134 7.69551 16.9431 7.5002L3.71651 2.92207C3.60538 2.88302 3.48548 2.87616 3.37062 2.90229C3.25576 2.92843 3.15063 2.98649 3.06734 3.06978C2.98404 3.15307 2.92599 3.2582 2.89985 3.37306C2.87372 3.48792 2.88058 3.60782 2.91963 3.71895Z" fill="#D8D8D8"/>
</svg>
