<?xml version="1.0" encoding="utf-8"?>
<!-- Generator: Adobe Illustrator 26.1.0, SVG Export Plug-In . SVG Version: 6.00 Build 0)  -->
<svg version="1.1" id="Слой_1" xmlns="http://www.w3.org/2000/svg" xmlns:xlink="http://www.w3.org/1999/xlink" x="0px" y="0px"
	 viewBox="0 0 24 24" style="enable-background:new 0 0 24 24;" xml:space="preserve">
<style type="text/css">
	.st0{fill:#383838;}
</style>
<g>
	<path class="st0" d="M12,17.1c-4.5,0-8.1-3.6-8.1-8.1c0-4.5,3.6-8.1,8.1-8.1c4.5,0,8.1,3.6,8.1,8.1C20.1,13.5,16.5,17.1,12,17.1z
		 M12,2.1C8.2,2.1,5.1,5.2,5.1,9s3.1,6.9,6.9,6.9s6.9-3.1,6.9-6.9S15.8,2.1,12,2.1z"/>
</g>
<g>
	<path class="st0" d="M12,14.1c-2.8,0-5.1-2.3-5.1-5.1S9.2,3.9,12,3.9c2.8,0,5.1,2.3,5.1,5.1S14.8,14.1,12,14.1z M12,5.1
		C9.8,5.1,8.1,6.8,8.1,9s1.7,3.9,3.9,3.9s3.9-1.7,3.9-3.9S14.2,5.1,12,5.1z"/>
</g>
<g>
	<path class="st0" d="M16.5,23.1c-0.1,0-0.2,0-0.3-0.1L12,20.9L7.8,23c-0.2,0.1-0.4,0.1-0.6,0c-0.2-0.1-0.3-0.3-0.3-0.5V15
		c0-0.3,0.3-0.6,0.6-0.6s0.6,0.3,0.6,0.6v6.5l3.6-1.8c0.2-0.1,0.4-0.1,0.5,0l3.6,1.8V15c0-0.3,0.3-0.6,0.6-0.6s0.6,0.3,0.6,0.6v7.5
		c0,0.2-0.1,0.4-0.3,0.5C16.7,23.1,16.6,23.1,16.5,23.1z"/>
</g>
</svg>
