<?xml version="1.0" encoding="utf-8"?>
<!-- Generator: Adobe Illustrator 26.1.0, SVG Export Plug-In . SVG Version: 6.00 Build 0)  -->
<svg version="1.1" id="Слой_1" xmlns="http://www.w3.org/2000/svg" xmlns:xlink="http://www.w3.org/1999/xlink" x="0px" y="0px"
	 viewBox="0 0 24 24" style="enable-background:new 0 0 24 24;" xml:space="preserve">
<style type="text/css">
	.st0{fill:#383838;}
</style>
<g>
	<path class="st0" d="M16.5,20.8c-3.6,0-6.9-1.4-9.4-3.9c-2.5-2.5-3.9-5.9-3.9-9.4c0-1.2,0.5-2.4,1.3-3.4c0.8-0.9,1.9-1.5,3.2-1.7
		c0.3,0,0.6,0,0.8,0.2C8.7,2.8,8.9,3,9,3.3l1.9,4.4C11,7.8,11,8.1,11,8.3c0,0.2-0.1,0.4-0.2,0.6l-1.6,2.4l-0.5,0.4l0.5-0.3
		c0.7,1.5,1.9,2.7,3.4,3.4c0,0,0.1,0,0.1,0l2.3-1.6c0.2-0.1,0.4-0.2,0.6-0.2c0.2,0,0.4,0,0.7,0.1l4.4,1.9c0.3,0.1,0.5,0.3,0.6,0.6
		c0.1,0.3,0.2,0.6,0.2,0.8c-0.2,1.2-0.8,2.4-1.7,3.2C18.9,20.4,17.7,20.8,16.5,20.8z M7.7,3l0.1,0.6C6.8,3.8,5.9,4.2,5.3,4.9
		c-0.6,0.7-1,1.6-1,2.6c0,3.2,1.3,6.3,3.6,8.6c2.3,2.3,5.3,3.6,8.6,3.6c0.9,0,1.9-0.3,2.6-1c0.7-0.6,1.2-1.5,1.3-2.4
		c0,0-0.1-0.1-0.1-0.1l-4.4-1.9c0,0-0.1,0-0.1,0l-2.3,1.6C13.2,15.9,13,16,12.8,16c-0.2,0-0.5,0-0.7-0.1C10.4,15.1,9,13.7,8.1,12
		c0,0,0,0,0,0C8,11.8,8,11.5,8,11.3c0-0.2,0.1-0.5,0.2-0.6l1.6-2.4c0,0,0-0.1,0-0.1L7.9,3.7L7.7,3z"/>
</g>
</svg>
