<?xml version="1.0" encoding="utf-8"?>
<!-- Generator: Adobe Illustrator 26.1.0, SVG Export Plug-In . SVG Version: 6.00 Build 0)  -->
<svg version="1.1" id="Слой_1" xmlns="http://www.w3.org/2000/svg" xmlns:xlink="http://www.w3.org/1999/xlink" x="0px" y="0px"
	 viewBox="0 0 24 24" style="enable-background:new 0 0 24 24;" xml:space="preserve">
<style type="text/css">
	.st0{fill:#383838;}
</style>
<g>
	<path class="st0" d="M16.3,16.5c-0.2,0-0.3-0.1-0.4-0.2c-0.2-0.2-0.2-0.6,0-0.8l3.5-3.5l-3.5-3.5c-0.2-0.2-0.2-0.6,0-0.8
		s0.6-0.2,0.8,0l3.9,3.9c0.2,0.2,0.2,0.6,0,0.8l-3.9,3.9C16.6,16.5,16.5,16.5,16.3,16.5z"/>
</g>
<g>
	<path class="st0" d="M20.2,12.6H9.8c-0.3,0-0.6-0.3-0.6-0.6s0.3-0.6,0.6-0.6h10.5c0.3,0,0.6,0.3,0.6,0.6S20.6,12.6,20.2,12.6z"/>
</g>
<g>
	<path class="st0" d="M9.8,20.8H4.5c-0.4,0-0.7-0.1-1-0.4c-0.3-0.3-0.4-0.6-0.4-1v-15c0-0.4,0.1-0.7,0.4-1s0.6-0.4,1-0.4h5.2
		c0.3,0,0.6,0.3,0.6,0.6s-0.3,0.6-0.6,0.6H4.5c0,0-0.1,0-0.1,0s0,0.1,0,0.1v15c0,0,0,0.1,0,0.1c0,0,0.1,0,0.1,0h5.2
		c0.3,0,0.6,0.3,0.6,0.6S10.1,20.8,9.8,20.8z"/>
</g>
</svg>
