<svg width="14" height="14" viewBox="0 0 14 14" fill="none" xmlns="http://www.w3.org/2000/svg">
    <path d="M7.24105 10.4289L9.9973 12.1789C10.3528 12.4031 10.7903 12.0695 10.6864 11.6594L9.88793 8.52033C9.86633 8.43332 9.86977 8.34198 9.89783 8.25683C9.92589 8.17169 9.97743 8.0962 10.0465 8.03908L12.5184 5.97736C12.841 5.70939 12.677 5.16798 12.2559 5.14064L9.02933 4.93283C8.94129 4.9277 8.85665 4.89705 8.78576 4.8446C8.71486 4.79216 8.66078 4.7202 8.63011 4.63751L7.42699 1.60783C7.39514 1.52027 7.33712 1.44464 7.26081 1.3912C7.1845 1.33775 7.09359 1.30908 7.00042 1.30908C6.90726 1.30908 6.81635 1.33775 6.74004 1.3912C6.66373 1.44464 6.60571 1.52027 6.57386 1.60783L5.37074 4.63751C5.34007 4.7202 5.28599 4.79216 5.21509 4.8446C5.14419 4.89705 5.05956 4.9277 4.97152 4.93283L1.74496 5.14064C1.32386 5.16798 1.1598 5.70939 1.48246 5.97736L3.95433 8.03908C4.02342 8.0962 4.07496 8.17169 4.10302 8.25683C4.13108 8.34198 4.13451 8.43332 4.11292 8.52033L3.37464 11.4297C3.24886 11.9219 3.77386 12.3211 4.19496 12.0531L6.7598 10.4289C6.83172 10.3832 6.91519 10.3589 7.00042 10.3589C7.08566 10.3589 7.16913 10.3832 7.24105 10.4289Z"
          fill="#383838"/>
</svg>
