<svg width="56" height="56" viewBox="0 0 56 56" fill="none" xmlns="http://www.w3.org/2000/svg">
<path d="M46.1633 28.6566L46.1628 28.6569L29.2125 37.8116C29.2125 37.8116 29.2125 37.8116 29.2125 37.8116C28.8349 38.0155 28.42 38.1207 28.0009 38.1207C27.5818 38.1207 27.1669 38.0155 26.7893 37.8116L9.83682 28.6569L9.8363 28.6566C9.64782 28.5551 9.48457 28.3968 9.36853 28.1952C9.25237 27.9934 9.18945 27.7581 9.18945 27.5161C9.18945 27.274 9.25237 27.0388 9.36853 26.837C9.48457 26.6353 9.64782 26.4771 9.8363 26.3756L9.83677 26.3753L26.7893 17.223L26.7893 17.2229C27.1669 17.019 27.5818 16.9138 28.0009 16.9138C28.42 16.9138 28.8349 17.019 29.2125 17.2229L29.2125 17.223L46.1628 26.3753L46.1633 26.3756C46.3518 26.4771 46.515 26.6353 46.6311 26.837C46.7472 27.0388 46.8101 27.274 46.8101 27.5161C46.8101 27.7581 46.7472 27.9934 46.6311 28.1952C46.515 28.3968 46.3518 28.5551 46.1633 28.6566Z" stroke="#383838"/>
</svg>
