<svg width="447" height="285" viewBox="0 0 447 285" fill="none" xmlns="http://www.w3.org/2000/svg">
<path d="M79.2622 86.0222L212.02 19.1146C215.539 17.3384 219.425 16.4131 223.366 16.4131C227.308 16.4131 231.195 17.3384 234.713 19.1146L367.471 86.0222C369.61 87.1016 371.407 88.7534 372.663 90.7936C373.918 92.8339 374.583 95.1826 374.583 97.5782C374.583 99.9739 373.918 102.322 372.663 104.363C371.407 106.403 369.61 108.055 367.471 109.134L234.69 176.053C231.17 177.824 227.284 178.747 223.343 178.747C219.403 178.747 215.517 177.824 211.997 176.053L79.239 109.134C77.0979 108.056 75.2986 106.403 74.0423 104.361C72.786 102.319 72.1216 99.9685 72.124 97.5711C72.1264 95.1736 72.7955 92.8241 74.056 90.7847C75.3164 88.7453 77.119 87.0965 79.2622 86.0222Z" fill="url(#paint0_linear_2070_137066)"/>
<path d="M316.413 28.3524C387.609 3.28818 439.212 -6.2518 445.162 6.91359C453.877 26.1562 361.626 86.6844 239.129 142.111C116.631 197.539 10.2743 226.856 1.57096 207.601C-3.44885 196.528 24.9735 171.777 73.3473 142.204L107.115 122.718" stroke="#383838" stroke-miterlimit="10"/>
<path d="M317.049 27.8527L323.151 20.2764C323.207 20.2081 323.249 20.1293 323.274 20.0447C323.299 19.9601 323.307 19.8714 323.297 19.7837C323.287 19.6961 323.26 19.6113 323.217 19.5342L317.049 27.8527ZM317.049 27.8527L316.822 27.797L316.703 28.2825L317.092 28.5962L317.239 28.4142L326.684 30.7343L317.049 27.8527ZM326.688 31.4081L326.684 31.4248L326.681 31.4418C326.675 31.4704 326.663 31.4962 326.645 31.5171C326.63 31.5347 326.611 31.5487 326.59 31.5583C326.558 31.5645 326.525 31.5632 326.494 31.5544L326.486 31.5522L326.478 31.5502L315.489 28.8435C315.488 28.8434 315.488 28.8433 315.488 28.8432C315.459 28.8357 315.432 28.8213 315.41 28.8013C315.388 28.7818 315.371 28.7576 315.361 28.7311C315.353 28.7062 315.351 28.6794 315.356 28.653C315.361 28.6256 315.373 28.5999 315.391 28.5784L315.391 28.5785L315.396 28.5725L322.492 19.7459C322.521 19.7122 322.562 19.6908 322.606 19.6864C322.652 19.6819 322.697 19.6955 322.733 19.7242L322.733 19.7242L322.739 19.729C322.756 19.742 322.77 19.7584 322.781 19.7778L322.781 19.7779C322.791 19.7972 322.798 19.818 322.8 19.839C322.803 19.86 322.801 19.8818 322.794 19.9029C322.788 19.9237 322.778 19.943 322.764 19.9597L322.764 19.9597L322.762 19.9627L316.313 27.9689L315.82 28.5807L316.583 28.7681L326.565 31.2199L326.565 31.22L326.576 31.2224C326.595 31.2268 326.614 31.2352 326.631 31.247L326.922 30.8404L326.631 31.247C326.647 31.2587 326.661 31.2737 326.672 31.2912C326.683 31.3097 326.69 31.3291 326.692 31.3479C326.695 31.3665 326.694 31.387 326.688 31.4081Z" fill="#383838" stroke="#383838"/>
<path d="M223.362 283.642C284.873 283.642 334.739 233.777 334.739 172.265C334.739 110.753 284.873 60.8882 223.362 60.8882C161.85 60.8882 111.984 110.753 111.984 172.265C111.984 233.777 161.85 283.642 223.362 283.642Z" stroke="#383838" stroke-miterlimit="10"/>
<defs>
<linearGradient id="paint0_linear_2070_137066" x1="269" y1="33.0001" x2="266" y2="103" gradientUnits="userSpaceOnUse">
<stop stop-color="#FBFFDE"/>
<stop offset="1" stop-color="#B6FC86"/>
</linearGradient>
</defs>
</svg>
