<svg width="357" height="214" viewBox="0 0 357 214" fill="none" xmlns="http://www.w3.org/2000/svg">
<path d="M237.285 56.7871H46.6291C44.6656 56.7866 42.7251 57.2105 40.9407 58.0298C39.1562 58.849 37.57 60.0443 36.2905 61.5337C35.0109 63.0231 34.0682 64.7714 33.5273 66.659C32.9863 68.5465 32.8599 70.5287 33.1563 72.4697L54.4704 211.984H272.703L250.758 68.3963C250.273 65.1693 248.646 62.2232 246.174 60.093C243.702 57.9628 240.548 56.7899 237.285 56.7871Z" fill="url(#paint0_linear_2070_137167)"/>
<path d="M53.5113 158.12C33.3198 158.12 16.9514 141.751 16.9514 121.56C16.9513 101.368 33.3198 85 53.5113 85C73.7028 85 90.0713 101.368 90.0713 121.56C90.0713 141.751 73.7028 158.12 53.5113 158.12Z" stroke="#383838" stroke-width="1.2" stroke-linecap="round" stroke-linejoin="round"/>
<path d="M27.3945 147.128L1.00011 173.523" stroke="#383838" stroke-width="1.2" stroke-linecap="round" stroke-linejoin="round"/>
<path d="M357 212.623H54.5088" stroke="#383838" stroke-miterlimit="10"/>
<path d="M179.418 51.5518C179.947 51.7657 180.303 52.062 180.486 52.4407C180.67 52.8193 180.741 53.2585 180.701 53.7582C180.654 54.2039 180.517 54.5781 180.289 54.8807C180.072 55.1842 179.796 55.4241 179.461 55.6004C179.125 55.7766 178.752 55.8963 178.34 55.9593C177.928 56.0224 177.51 56.0368 177.085 56.0024C176.68 55.9698 176.274 55.8995 175.866 55.7916C175.468 55.6846 175.111 55.5274 174.796 55.32C174.481 55.1127 174.224 54.8511 174.025 54.5354C173.836 54.2205 173.75 53.8336 173.765 53.3747L175.089 53.4816C175.113 53.7083 175.199 53.9025 175.347 54.0643C175.495 54.2154 175.672 54.3473 175.877 54.4602C176.093 54.5633 176.317 54.6455 176.547 54.707C176.789 54.7586 177.006 54.7921 177.197 54.8076C177.42 54.8256 177.65 54.8281 177.887 54.8151C178.134 54.803 178.362 54.7572 178.572 54.6778C178.782 54.5985 178.957 54.4789 179.099 54.3191C179.241 54.1486 179.323 53.9252 179.345 53.6487C179.363 53.4255 179.332 53.2196 179.251 53.0311C179.17 52.832 179.033 52.6765 178.839 52.5645C178.665 52.4648 178.462 52.4002 178.229 52.3707C177.996 52.3306 177.779 52.3023 177.577 52.286L176.078 52.165L176.175 50.9689L177.403 51.068C177.605 51.0843 177.813 51.0851 178.029 51.0704C178.245 51.045 178.442 50.9914 178.619 50.9094C178.808 50.8283 178.961 50.7177 179.08 50.5774C179.209 50.4274 179.291 50.2092 179.325 49.923C179.343 49.6998 179.305 49.5094 179.211 49.352C179.127 49.1954 179.004 49.0677 178.84 48.9689C178.689 48.8604 178.508 48.7815 178.298 48.7325C178.099 48.6736 177.899 48.6361 177.697 48.6197C177.505 48.6043 177.302 48.6039 177.087 48.6186C176.872 48.6227 176.671 48.66 176.484 48.7305C176.297 48.7903 176.134 48.8842 175.996 49.0121C175.857 49.14 175.763 49.3143 175.713 49.535L174.373 49.4268C174.418 49.0024 174.548 48.6544 174.762 48.3828C174.988 48.1014 175.262 47.8881 175.584 47.7429C175.907 47.587 176.258 47.4869 176.636 47.4426C177.026 47.3884 177.406 47.3763 177.779 47.4064C178.151 47.4364 178.515 47.5033 178.87 47.6069C179.236 47.7114 179.555 47.8656 179.828 48.0695C180.101 48.2628 180.317 48.5103 180.474 48.8119C180.632 49.1136 180.693 49.477 180.659 49.9023C180.628 50.2851 180.51 50.618 180.306 50.9011C180.101 51.1842 179.805 51.4011 179.418 51.5518ZM187.874 55.7019C187.674 55.9318 187.451 56.1118 187.205 56.2417C186.959 56.3717 186.705 56.4689 186.443 56.5334C186.191 56.5987 185.937 56.637 185.679 56.6483C185.432 56.6604 185.186 56.6566 184.942 56.6369C184.548 56.6051 184.18 56.5272 183.837 56.4032C183.494 56.2792 183.187 56.0993 182.917 55.8634C182.658 55.6285 182.456 55.3446 182.312 55.0119C182.178 54.6801 182.128 54.3122 182.16 53.9082C182.199 53.4297 182.316 53.0379 182.512 52.7326C182.719 52.4176 182.98 52.1712 183.294 51.9932C183.608 51.8152 183.959 51.7045 184.348 51.661C184.748 51.6077 185.167 51.5986 185.602 51.6338L188.074 51.8334C188.132 51.1211 188.023 50.5451 187.748 50.1056C187.474 49.6554 186.972 49.3901 186.24 49.3096C185.793 49.2735 185.394 49.3162 185.041 49.4375C184.689 49.5589 184.436 49.7846 184.28 50.1145L182.829 49.9973C182.935 49.6206 183.11 49.3083 183.354 49.0605C183.6 48.8021 183.884 48.6003 184.206 48.4551C184.529 48.2992 184.874 48.1934 185.243 48.1375C185.611 48.0817 185.976 48.0683 186.338 48.0975C186.965 48.1482 187.482 48.297 187.891 48.544C188.31 48.7812 188.639 49.0806 188.878 49.4423C189.117 49.7934 189.27 50.2124 189.338 50.6994C189.406 51.1865 189.415 51.7277 189.367 52.3231L189 56.8683L187.868 56.7768L187.874 55.7019ZM186.5 52.846C186.245 52.8254 185.947 52.8067 185.605 52.7898C185.276 52.7632 184.954 52.7693 184.641 52.8082C184.327 52.8471 184.067 52.9599 183.859 53.1464C183.662 53.3338 183.55 53.5923 183.524 53.9219C183.504 54.1665 183.535 54.3776 183.617 54.5555C183.699 54.7333 183.815 54.8872 183.965 55.017C184.126 55.1477 184.31 55.2482 184.518 55.3185C184.727 55.3889 184.943 55.433 185.166 55.4511C185.963 55.5154 186.606 55.3747 187.094 55.0289C187.594 54.6733 187.879 54.1238 187.95 53.3804L187.983 52.9657L186.5 52.846ZM198.961 57.801C198.514 57.7649 198.066 57.6859 197.616 57.5639C197.176 57.4428 196.768 57.2654 196.391 57.0316C196.025 56.7881 195.718 56.485 195.469 56.1225C195.23 55.7608 195.094 55.3271 195.06 54.8214L196.495 54.9373C196.569 55.2214 196.694 55.4616 196.871 55.6578C197.059 55.8442 197.271 56.0005 197.507 56.1265C197.754 56.2535 198.013 56.3494 198.286 56.4142C198.559 56.479 198.823 56.5218 199.079 56.5424C199.313 56.5613 199.58 56.5615 199.881 56.543C200.182 56.5245 200.466 56.4564 200.732 56.3388C201.009 56.2221 201.244 56.0377 201.435 55.7856C201.638 55.5238 201.758 55.1696 201.794 54.723C201.828 54.2977 201.771 53.9506 201.621 53.6817C201.482 53.4137 201.286 53.1998 201.031 53.0401C200.787 52.8813 200.502 52.7673 200.176 52.6982C199.86 52.6299 199.538 52.5825 199.208 52.5559L198.123 52.4683L198.224 51.2243L198.878 51.2771C199.165 51.3003 199.431 51.3165 199.676 51.3256C199.923 51.3241 200.2 51.2715 200.508 51.168C200.861 51.036 201.15 50.8346 201.375 50.5638C201.601 50.2824 201.735 49.9508 201.777 49.5689C201.808 49.1862 201.769 48.8674 201.661 48.6125C201.553 48.3577 201.399 48.1526 201.197 47.9972C200.996 47.8418 200.764 47.7321 200.502 47.6681C200.24 47.5935 199.971 47.545 199.695 47.5227C199.471 47.5047 199.235 47.5124 198.986 47.5458C198.749 47.5694 198.52 47.6258 198.299 47.715C198.088 47.805 197.896 47.9339 197.722 48.1018C197.548 48.259 197.42 48.4573 197.336 48.6967L195.949 48.5847C196.051 48.122 196.232 47.7353 196.492 47.4246C196.753 47.1139 197.062 46.866 197.419 46.6808C197.787 46.4965 198.182 46.3732 198.605 46.311C199.038 46.2497 199.472 46.2366 199.908 46.2718C200.386 46.3104 200.829 46.3997 201.235 46.5395C201.652 46.6695 202.011 46.8643 202.311 47.124C202.612 47.373 202.838 47.6909 202.989 48.0776C203.15 48.4652 203.209 48.9248 203.166 49.4564C203.15 49.6584 203.111 49.8746 203.05 50.1051C202.989 50.3249 202.891 50.5418 202.756 50.7556C202.621 50.9694 202.433 51.179 202.192 51.3842C201.951 51.5895 201.643 51.7519 201.27 51.8716C201.971 52.0673 202.488 52.4247 202.82 52.9439C203.154 53.4524 203.293 54.0468 203.238 54.7273L203.233 54.7911C203.186 55.3758 203.039 55.8723 202.792 56.2804C202.556 56.6787 202.247 57.0015 201.863 57.2488C201.48 57.4854 201.039 57.6477 200.539 57.7358C200.04 57.8239 199.514 57.8456 198.961 57.801ZM214.044 53.2241C213.986 53.9471 213.855 54.6481 213.65 55.3272C213.456 56.0071 213.167 56.6045 212.783 57.1192C212.4 57.6234 211.913 58.0175 211.323 58.3016C210.733 58.5857 210.018 58.6938 209.178 58.626C208.327 58.5573 207.634 58.3354 207.097 57.9603C206.56 57.5852 206.143 57.1181 205.845 56.5591C205.549 55.9894 205.359 55.364 205.275 54.683C205.19 54.002 205.179 53.2788 205.241 52.5133C205.303 51.7478 205.43 51.0357 205.622 50.377C205.815 49.7078 206.104 49.121 206.487 48.6169C206.87 48.1128 207.356 47.7187 207.947 47.4346C208.538 47.1398 209.258 47.0268 210.109 47.0955C210.949 47.1633 211.637 47.3848 212.174 47.7599C212.711 48.135 213.128 48.6074 213.424 49.1771C213.721 49.7468 213.91 50.3828 213.992 51.085C214.085 51.7881 214.103 52.5012 214.044 53.2241ZM206.66 52.6279C206.619 53.1382 206.614 53.6622 206.646 54.1998C206.677 54.7374 206.782 55.2328 206.959 55.6859C207.137 56.139 207.406 56.5192 207.766 56.8265C208.137 57.1347 208.642 57.3146 209.28 57.3661C209.907 57.4167 210.423 57.3193 210.828 57.0738C211.244 56.8291 211.576 56.4974 211.823 56.0786C212.071 55.6599 212.254 55.1877 212.371 54.6621C212.489 54.1365 212.568 53.6186 212.609 53.1082C212.649 52.6085 212.654 52.0899 212.622 51.5523C212.591 51.0147 212.486 50.5193 212.309 50.0662C212.132 49.6025 211.859 49.2165 211.487 48.9083C211.128 48.5904 210.634 48.4061 210.007 48.3554C209.369 48.3039 208.842 48.4058 208.425 48.6611C208.02 48.9066 207.693 49.2441 207.445 49.6734C207.197 50.0922 207.014 50.5644 206.897 51.09C206.78 51.6155 206.701 52.1282 206.66 52.6279ZM223.431 59.7448C222.761 59.6907 222.19 59.5376 221.719 59.2855C221.247 59.0333 220.867 58.703 220.579 58.2945C220.291 57.886 220.088 57.4148 219.97 56.881C219.853 56.3471 219.819 55.7719 219.869 55.1552C219.917 54.5598 220.047 54.0085 220.259 53.5013C220.472 52.9834 220.759 52.5464 221.12 52.1902C221.481 51.8235 221.921 51.5486 222.438 51.3657C222.957 51.1721 223.572 51.1041 224.285 51.1616C224.71 51.196 225.084 51.2743 225.405 51.3966C225.728 51.5083 226.025 51.6767 226.296 51.9019C226.578 52.1173 226.812 52.3931 226.999 52.7292C227.186 53.0654 227.309 53.4659 227.368 53.9308L225.98 53.8187C225.859 53.3381 225.631 52.9825 225.296 52.7522C224.972 52.5227 224.576 52.3944 224.107 52.3673C223.65 52.3304 223.239 52.3881 222.873 52.5405C222.519 52.6832 222.224 52.8894 221.989 53.1593C221.763 53.4301 221.587 53.753 221.461 54.128C221.335 54.4924 221.256 54.8713 221.225 55.2647C221.191 55.6793 221.207 56.0766 221.273 56.4564C221.349 56.8371 221.477 57.1792 221.655 57.4825C221.846 57.7761 222.099 58.0213 222.415 58.218C222.731 58.4041 223.118 58.5156 223.576 58.5526C223.799 58.5706 224.019 58.5669 224.235 58.5416C224.461 58.5171 224.669 58.4643 224.857 58.3832C225.057 58.2923 225.233 58.1674 225.385 58.0084C225.537 57.8495 225.655 57.6503 225.738 57.4109L227.142 57.5243C227.022 57.9533 226.837 58.3183 226.588 58.6192C226.35 58.9104 226.064 59.1494 225.727 59.3363C225.392 59.5125 225.029 59.6331 224.639 59.6978C224.248 59.7626 223.846 59.7783 223.431 59.7448ZM230.017 56.4562C230.019 56.8309 230.065 57.1824 230.157 57.5108C230.259 57.8295 230.407 58.1143 230.601 58.3654C230.795 58.6165 231.04 58.8236 231.338 58.9867C231.646 59.14 232.008 59.2334 232.423 59.2669C232.625 59.2832 232.833 59.284 233.048 59.2693C233.275 59.2448 233.488 59.1977 233.686 59.1281C233.885 59.0479 234.065 58.9394 234.226 58.8025C234.387 58.6657 234.513 58.494 234.604 58.2874L235.992 58.3994C235.864 58.7957 235.671 59.1332 235.413 59.412C235.165 59.6917 234.874 59.9144 234.54 60.08C234.216 60.2465 233.859 60.3621 233.469 60.4269C233.079 60.481 232.687 60.4922 232.294 60.4605C231.624 60.4064 231.048 60.2528 230.566 59.9998C230.094 59.7477 229.708 59.4223 229.408 59.0235C229.11 58.6142 228.902 58.1426 228.784 57.6087C228.668 57.0642 228.635 56.4783 228.685 55.851C228.736 55.2238 228.867 54.6565 229.08 54.1493C229.303 53.6322 229.595 53.1957 229.956 52.8395C230.316 52.4834 230.744 52.2183 231.24 52.0443C231.736 51.8703 232.313 51.8099 232.972 51.8631C233.642 51.9172 234.211 52.0969 234.678 52.4022C235.146 52.7075 235.511 53.0901 235.774 53.5501C236.037 53.9994 236.207 54.4786 236.283 54.9878C236.371 55.4978 236.387 55.9646 236.331 56.3881C236.323 56.4838 236.31 56.5791 236.292 56.6739C236.284 56.7696 236.271 56.8649 236.253 56.9597L230.017 56.4562ZM235.008 55.6714C235.045 54.9573 234.868 54.3598 234.479 53.8789C234.09 53.3981 233.539 53.1289 232.827 53.0713C232.433 53.0396 232.082 53.0755 231.774 53.179C231.466 53.2826 231.202 53.4378 230.982 53.6448C230.762 53.8517 230.582 54.0993 230.441 54.3876C230.301 54.6652 230.202 54.9622 230.144 55.2786L235.008 55.6714ZM237.808 60.8094L238.486 52.4047L239.842 52.5142L239.55 56.1344L241.017 56.2529L243.797 52.8335L245.344 52.9585L242.214 56.7348L244.905 61.3824L243.31 61.2536L241.081 57.4459L239.454 57.3145L239.163 60.9188L237.808 60.8094ZM252.801 53.5606L254.332 53.6842L251.421 60.1108C251.266 60.4407 251.096 60.8176 250.912 61.2415C250.74 61.6556 250.546 62.068 250.331 62.4787C250.126 62.9009 249.896 63.2943 249.642 63.6591C249.398 64.0246 249.134 64.3137 248.849 64.5261C248.428 64.8452 248.033 65.0327 247.664 65.0885C247.295 65.155 246.882 65.1698 246.425 65.1329L246.138 65.1097L246.242 63.8179C246.625 63.8488 246.952 63.8325 247.225 63.7689C247.497 63.7159 247.735 63.6121 247.94 63.4575C248.156 63.3037 248.343 63.1048 248.502 62.8608C248.672 62.6176 248.845 62.3266 249.022 61.9878L245.959 53.0081L247.554 53.1369L249.9 60.4535L252.801 53.5606ZM254.908 62.1902L255.587 53.7855L256.943 53.895L256.645 57.579L260.855 57.919L261.153 54.235L262.508 54.3444L261.83 62.7491L260.474 62.6396L260.759 59.1151L256.549 58.7751L256.264 62.2996L254.908 62.1902ZM265.459 56.4447C265.494 56.1372 265.524 55.8293 265.549 55.521C265.574 55.2127 265.599 54.9043 265.624 54.596L271.589 55.0776L271.005 62.3021L272.106 62.391L271.802 66.1547L270.494 66.0491L270.703 63.4655L264.563 62.9697L264.354 65.5533L263.046 65.4477L263.35 61.684C263.775 61.7183 264.126 61.554 264.401 61.191C264.567 60.9904 264.709 60.6968 264.826 60.3103C264.943 59.9131 265.041 59.493 265.12 59.0499C265.213 58.5651 265.284 58.0839 265.333 57.6063C265.394 57.119 265.436 56.7318 265.459 56.4447ZM270.136 56.1643L266.819 55.8964C266.773 56.3421 266.722 56.841 266.666 57.393C266.611 57.945 266.548 58.4589 266.478 58.9348C266.45 59.1466 266.415 59.3792 266.373 59.6326C266.332 59.8755 266.274 60.1276 266.2 60.3891C266.137 60.6409 266.046 60.8958 265.929 61.1538C265.823 61.4128 265.681 61.6474 265.503 61.8578L269.65 62.1927L270.136 56.1643Z" fill="#383838"/>
<rect x="163.03" y="32.1978" width="119" height="35" rx="17.5" transform="rotate(4.61647 163.03 32.1978)" stroke="#383838"/>
<rect x="120" y="11.8862" width="98" height="36" rx="18" transform="rotate(-6.96632 120 11.8862)" fill="white"/>
<path d="M130.74 22.3489L138.379 21.4155L138.533 22.6701L132.275 23.4347L132.689 26.8176L135.246 26.5051C135.796 26.4379 136.325 26.4162 136.833 26.4401C137.351 26.4521 137.814 26.5513 138.224 26.7376C138.643 26.9121 138.994 27.1916 139.277 27.576C139.559 27.9499 139.74 28.4651 139.821 29.1215C139.905 29.8098 139.862 30.3845 139.693 30.8458C139.522 31.2965 139.257 31.6781 138.898 31.9907C138.549 32.3019 138.122 32.5475 137.618 32.7273C137.113 32.9072 136.57 33.0327 135.987 33.1039L132.112 33.5774L130.74 22.3489ZM133.341 32.1539L135.659 31.8705C136.04 31.824 136.408 31.7575 136.763 31.6712C137.127 31.573 137.443 31.4323 137.711 31.2491C137.978 31.0554 138.179 30.8105 138.314 30.5145C138.45 30.2185 138.49 29.8429 138.435 29.3876C138.379 28.9323 138.251 28.588 138.051 28.3546C137.849 28.1106 137.603 27.9419 137.312 27.8484C137.02 27.7444 136.692 27.6985 136.328 27.7108C135.973 27.7111 135.611 27.7339 135.24 27.7792L132.842 28.0722L133.341 32.1539ZM142.784 28.5338C142.861 28.9005 142.977 29.2355 143.132 29.5389C143.297 29.8305 143.499 30.0798 143.74 30.2868C143.98 30.4939 144.262 30.6475 144.586 30.7476C144.919 30.8358 145.292 30.8547 145.705 30.8043C145.906 30.7797 146.111 30.7386 146.318 30.681C146.536 30.6114 146.734 30.5227 146.915 30.4147C147.094 30.2961 147.248 30.1537 147.378 29.9873C147.508 29.821 147.597 29.6274 147.646 29.4066L149.027 29.2377C148.981 29.6517 148.86 30.0212 148.663 30.3461C148.477 30.6697 148.237 30.9462 147.942 31.1756C147.659 31.4037 147.332 31.5887 146.963 31.7306C146.592 31.8619 146.21 31.9514 145.819 31.9993C145.152 32.0808 144.556 32.0461 144.033 31.8951C143.52 31.7429 143.077 31.5015 142.703 31.1711C142.328 30.83 142.03 30.4098 141.808 29.9104C141.584 29.4004 141.434 28.833 141.358 28.2083C141.282 27.5837 141.296 27.0016 141.402 26.4621C141.518 25.9107 141.716 25.4243 141.998 25.0031C142.28 24.5818 142.646 24.2362 143.096 23.9662C143.547 23.6962 144.1 23.5211 144.757 23.4409C145.424 23.3594 146.017 23.4213 146.536 23.6264C147.056 23.8316 147.49 24.1332 147.84 24.531C148.188 24.9183 148.451 25.3537 148.628 25.8371C148.816 26.3192 148.925 26.7733 148.956 27.1994C148.967 27.2947 148.974 27.3906 148.975 27.4872C148.986 27.5825 148.993 27.6784 148.994 27.775L142.784 28.5338ZM147.516 26.7628C147.408 26.056 147.115 25.5061 146.638 25.1132C146.16 24.7202 145.566 24.5671 144.857 24.6538C144.465 24.7016 144.129 24.8072 143.848 24.9705C143.567 25.1338 143.339 25.3389 143.165 25.5858C142.991 25.8327 142.864 26.1115 142.784 26.4222C142.702 26.7223 142.665 27.0331 142.672 27.3547L147.516 26.7628ZM154.875 30.8927C154.208 30.9742 153.618 30.9388 153.105 30.7866C152.592 30.6343 152.154 30.387 151.79 30.0447C151.425 29.7023 151.132 29.2815 150.91 28.7821C150.688 28.2827 150.539 27.7259 150.464 27.1118C150.392 26.5189 150.408 25.9527 150.514 25.4132C150.619 24.8631 150.812 24.3774 151.094 23.9561C151.374 23.5243 151.75 23.1667 152.22 22.8836C152.689 22.5899 153.279 22.3996 153.988 22.313C154.412 22.2612 154.793 22.2629 155.133 22.3181C155.472 22.3627 155.796 22.4681 156.107 22.6344C156.426 22.7887 156.712 23.0118 156.962 23.3036C157.213 23.5953 157.413 23.963 157.564 24.4067L156.183 24.5755C155.967 24.129 155.672 23.8266 155.298 23.6681C154.935 23.5083 154.521 23.4622 154.056 23.5297C153.601 23.5853 153.21 23.7245 152.882 23.9472C152.564 24.158 152.317 24.4193 152.14 24.731C151.973 25.0415 151.866 25.3931 151.817 25.7859C151.767 26.1681 151.766 26.5551 151.814 26.9469C151.864 27.3598 151.96 27.7457 152.101 28.1047C152.252 28.4623 152.445 28.7718 152.681 29.0331C152.927 29.2825 153.224 29.4718 153.573 29.6011C153.921 29.7198 154.322 29.7514 154.777 29.6957C155 29.6686 155.214 29.6209 155.421 29.5527C155.638 29.4831 155.831 29.3897 155.999 29.2725C156.177 29.1433 156.324 28.9856 156.441 28.7994C156.558 28.6131 156.633 28.3944 156.667 28.1431L158.065 27.9723C158.033 28.4168 157.925 28.8114 157.742 29.1562C157.568 29.4891 157.335 29.7809 157.043 30.0315C156.75 30.2714 156.418 30.4624 156.049 30.6042C155.679 30.7461 155.288 30.8423 154.875 30.8927ZM160.069 30.1614L159.046 21.7917L165.986 20.9436L167.009 29.3134L165.659 29.4783L164.782 22.2997L160.541 22.8179L161.419 29.9965L160.069 30.1614ZM169.441 25.0349C169.4 24.2661 169.347 23.5204 169.28 22.7978C169.224 22.074 169.155 21.3302 169.072 20.5666L174.885 19.8564L175.907 28.2261L174.557 28.3911L173.68 21.2125L170.536 21.5967L170.794 24.9017C170.825 25.3278 170.836 25.8101 170.826 26.3485C170.817 26.887 170.722 27.3875 170.542 27.8501C170.4 28.1791 170.187 28.4577 169.903 28.6858C169.619 28.9139 169.276 29.0525 168.874 29.1017L168.381 29.1618L168.236 27.9707C168.659 27.9189 168.976 27.6975 169.186 27.3065C169.309 27.0766 169.388 26.7554 169.423 26.3427C169.459 25.93 169.465 25.494 169.441 25.0349ZM183.41 26.2294C183.26 26.495 183.077 26.7161 182.862 26.8928C182.647 27.0694 182.418 27.2157 182.174 27.3314C181.941 27.4459 181.699 27.5345 181.449 27.5973C181.21 27.6589 180.968 27.7045 180.724 27.7342C180.333 27.7821 179.956 27.7797 179.595 27.7271C179.234 27.6745 178.898 27.5598 178.586 27.383C178.285 27.2049 178.03 26.9674 177.822 26.6704C177.624 26.3722 177.501 26.0219 177.452 25.6196C177.394 25.1431 177.43 24.7357 177.56 24.3974C177.7 24.0471 177.906 23.7533 178.178 23.5159C178.45 23.2786 178.772 23.0995 179.144 22.9788C179.525 22.8463 179.933 22.7534 180.367 22.7004L182.829 22.3996C182.742 21.6902 182.52 21.1478 182.163 20.7724C181.804 20.3864 181.258 20.2275 180.525 20.2955C180.08 20.3499 179.697 20.4719 179.377 20.6615C179.056 20.8511 178.853 21.1231 178.767 21.4774L177.322 21.654C177.349 21.2638 177.458 20.9228 177.648 20.6309C177.837 20.3285 178.074 20.0738 178.361 19.8668C178.646 19.6493 178.963 19.4762 179.313 19.3475C179.662 19.2188 180.017 19.1325 180.377 19.0885C181.002 19.0122 181.539 19.054 181.988 19.214C182.447 19.3622 182.829 19.5895 183.136 19.8959C183.44 20.1918 183.675 20.5715 183.839 21.035C184.003 21.4986 184.121 22.0268 184.194 22.6197L184.747 27.146L183.619 27.2838L183.41 26.2294ZM181.49 23.7077C181.236 23.7387 180.94 23.7803 180.602 23.8323C180.274 23.8724 179.96 23.9429 179.661 24.044C179.362 24.145 179.129 24.3078 178.963 24.5322C178.808 24.7554 178.75 25.0311 178.79 25.3593C178.82 25.6028 178.893 25.8035 179.009 25.9612C179.125 26.119 179.269 26.2464 179.442 26.3435C179.626 26.4393 179.827 26.5007 180.045 26.5277C180.263 26.5548 180.484 26.5547 180.706 26.5276C181.5 26.4305 182.101 26.1636 182.51 25.7268C182.928 25.2782 183.097 24.6826 183.017 23.9402L182.967 23.5272L181.49 23.7077ZM191.994 17.7659L192.139 18.957L189.265 19.3082L190.142 26.4869L188.792 26.6518L187.915 19.4732L185.04 19.8244L184.894 18.6333L191.994 17.7659ZM194.221 25.9884L193.198 17.6187L194.548 17.4537L194.996 21.1224L199.189 20.6101L198.741 16.9414L200.091 16.7765L201.114 25.1462L199.764 25.3112L199.335 21.8013L195.142 22.3136L195.571 25.8235L194.221 25.9884ZM205.898 15.9702C206.565 15.8887 207.155 15.9241 207.668 16.0763C208.181 16.2286 208.624 16.4752 208.999 16.8163C209.385 17.1561 209.689 17.581 209.913 18.0909C210.145 18.5891 210.3 19.1505 210.376 19.7751C210.453 20.3998 210.438 20.9872 210.334 21.5373C210.238 22.0755 210.044 22.5559 209.752 22.9785C209.469 23.3892 209.092 23.7308 208.62 24.0033C208.148 24.2759 207.579 24.4529 206.912 24.5344C206.245 24.616 205.65 24.5812 205.126 24.4303C204.613 24.278 204.165 24.0373 203.781 23.7081C203.406 23.3671 203.102 22.9475 202.869 22.4494C202.646 21.9394 202.496 21.3721 202.419 20.7474C202.343 20.1227 202.353 19.5412 202.448 19.003C202.553 18.4529 202.746 17.9672 203.028 17.546C203.32 17.1234 203.702 16.7758 204.174 16.5033C204.645 16.2307 205.22 16.053 205.898 15.9702ZM206.766 23.3433C207.222 23.2877 207.604 23.1604 207.913 22.9615C208.232 22.7613 208.481 22.5106 208.659 22.2094C208.846 21.8964 208.965 21.5487 209.015 21.1665C209.076 20.783 209.079 20.3742 209.026 19.9401C208.975 19.5166 208.873 19.126 208.722 18.7684C208.58 18.3988 208.381 18.09 208.125 17.8419C207.879 17.5819 207.576 17.3932 207.218 17.2758C206.87 17.157 206.469 17.1255 206.013 17.1811C205.558 17.2368 205.176 17.364 204.867 17.563C204.558 17.7619 204.31 18.0179 204.123 18.3309C203.945 18.6321 203.826 18.9797 203.767 19.3738C203.717 19.756 203.718 20.1589 203.769 20.5824C203.822 21.0165 203.919 21.413 204.06 21.772C204.211 22.1296 204.41 22.4384 204.657 22.6984C204.913 22.9466 205.214 23.13 205.562 23.2487C205.91 23.3674 206.311 23.3989 206.766 23.3433Z" fill="#383838"/>
<defs>
<linearGradient id="paint0_linear_2070_137167" x1="116.676" y1="72.6449" x2="120.133" y2="139.512" gradientUnits="userSpaceOnUse">
<stop stop-color="#FBFFDE"/>
<stop offset="1" stop-color="#B6FC86"/>
</linearGradient>
</defs>
</svg>
