<svg width="40" height="40" viewBox="0 0 40 40" fill="none" xmlns="http://www.w3.org/2000/svg">
<path d="M29.5414 15.717C29.6812 15.3034 29.5414 15 28.8807 15H26.6919C26.1349 15 25.8805 15.2624 25.7407 15.5507C25.7407 15.5507 24.6279 17.9695 23.0509 19.5379C22.5419 19.9943 22.3093 20.1384 22.0319 20.1384C21.8932 20.1384 21.6915 19.9943 21.6915 19.5806V15.717C21.6915 15.2206 21.5308 15 21.0667 15H17.6273C17.28 15 17.0704 15.2295 17.0704 15.4484C17.0704 15.9181 17.8589 16.0266 17.9397 17.3504V20.2221C17.9397 20.851 17.813 20.9658 17.5335 20.9658C16.792 20.9658 14.9874 18.538 13.9165 15.7588C13.7079 15.2188 13.4973 15.0009 12.9384 15.0009H10.7506C10.1248 15.0009 10 15.2633 10 15.5516C10 16.0693 10.7416 18.6314 13.4544 22.02C15.2629 24.3339 17.809 25.5882 20.1285 25.5882C21.5189 25.5882 21.6905 25.3098 21.6905 24.8294V23.0804C21.6905 22.5235 21.8233 22.4114 22.2634 22.4114C22.5868 22.4114 23.1438 22.5573 24.4422 23.672C25.9254 24.994 26.1709 25.5873 27.0044 25.5873H29.1921C29.8169 25.5873 30.1293 25.3089 29.9496 24.7591C29.7531 24.212 29.0444 23.4158 28.1042 22.4737C27.5932 21.9364 26.8296 21.3581 26.5971 21.069C26.2727 20.6962 26.3666 20.5316 26.5971 20.2007C26.5981 20.2016 29.264 16.8549 29.5414 15.717Z" fill="#383838"/>
<rect x="0.5" y="0.5" width="39" height="39" rx="11.5" stroke="#D8D8D8"/>
</svg>
