<svg width="20" height="20" viewBox="0 0 20 20" fill="none" xmlns="http://www.w3.org/2000/svg">
<path d="M7.22656 9.74966C7.8697 11.0778 8.94365 12.149 10.2734 12.7887C10.3715 12.8352 10.48 12.8553 10.5882 12.8471C10.6965 12.8388 10.8007 12.8026 10.8906 12.7418L12.8437 11.4372C12.93 11.3786 13.0298 11.3429 13.1336 11.3334C13.2374 11.3238 13.342 11.3407 13.4375 11.3825L17.0937 12.9528C17.2187 13.0048 17.3231 13.0964 17.3909 13.2136C17.4586 13.3308 17.486 13.467 17.4687 13.6012C17.3529 14.5057 16.9114 15.337 16.2269 15.9395C15.5424 16.542 14.6619 16.8745 13.75 16.8747C10.9321 16.8747 8.22956 15.7552 6.23699 13.7627C4.24442 11.7701 3.125 9.06759 3.125 6.24966C3.12521 5.33778 3.45767 4.45722 4.06018 3.77275C4.66268 3.08828 5.49395 2.64679 6.39844 2.53091C6.53269 2.51366 6.66888 2.54103 6.78605 2.60879C6.90322 2.67655 6.99486 2.78095 7.04687 2.90591L8.61719 6.56997C8.65802 6.66399 8.67511 6.76662 8.66693 6.8688C8.65876 6.97098 8.62558 7.06958 8.57031 7.15591L7.26562 9.14029C7.20754 9.23004 7.17345 9.33319 7.16661 9.43988C7.15977 9.54657 7.18041 9.65323 7.22656 9.74966Z" fill="white"/>

</svg>
