<svg style="display: none;" aria-hidden="true" xmlns="http://www.w3.org/2000/svg" xmlns:xlink="http://www.w3.org/1999/xlink">


    <symbol id="svg-Army" viewBox="0 0 24 24" style="enable-background:new 0 0 24 24" xml:space="preserve" xmlns="http://www.w3.org/2000/svg"><style>.aast0{fill:#383838}</style>
        <path
                class="aast0"
                d="M17 21.6H7c-.9 0-1.6-.7-1.6-1.6V7c0-.6.3-1.1.8-1.4l5-2.8c.5-.3 1.1-.3 1.6 0l5 2.8c.5.3.8.8.8 1.4v13c0 .9-.7 1.6-1.6 1.6zM12 3.7c-.1 0-.1 0-.2.1l-5 2.8c-.1.1-.2.2-.2.4v13c0 .2.2.4.4.4h10c.2 0 .4-.2.4-.4V7c0-.1-.1-.3-.2-.3l-5-2.8c-.1-.1-.1-.2-.2-.2z"/>
        <path
                class="aast0"
                d="M14.3 18.3c-.1 0-.2 0-.3-.1l-2-1-2 1c-.3.2-.7 0-.8-.3-.1-.3 0-.7.3-.8l2.3-1.1c.2-.1.4-.1.5 0l2.3 1.1c.3.1.4.5.3.8-.2.3-.4.4-.6.4zm0-4.5c-.1 0-.2 0-.3-.1l-2-1-2 1c-.3.2-.7 0-.8-.3s0-.7.3-.8l2.3-1.1c.2-.1.4-.1.5 0l2.3 1.1c.3.1.4.5.3.8-.2.3-.4.4-.6.4zm0-4.7c-.1 0-.2 0-.3-.1l-2-1-2 1c-.3.1-.7 0-.8-.3-.1-.2 0-.6.3-.7l2.3-1.1c.2-.1.4-.1.5 0L14.5 8c.3.1.4.5.3.8-.1.2-.3.3-.5.3z"/></symbol>


    <symbol id="svg-ArrowLeft" viewBox="0 0 24 24" style="enable-background:new 0 0 24 24" xml:space="preserve" xmlns="http://www.w3.org/2000/svg"><style>.abst0{fill:#383838}</style>
        <path class="abst0" d="M20.2 12.6H3.8c-.3 0-.6-.3-.6-.6s.3-.6.6-.6h16.5c.3 0 .6.3.6.6s-.3.6-.7.6z"/>
        <path class="abst0"
              d="M10.5 19.3c-.2 0-.3-.1-.4-.2l-6.8-6.7c-.2-.2-.2-.6 0-.8l6.8-6.8c.2-.2.6-.2.8 0s.2.6 0 .8L4.6 12l6.3 6.3c.2.2.2.6 0 .8-.1.2-.2.2-.4.2z"/></symbol>


    <symbol id="svg-read_heart" viewBox="0 0 20 20" fill="none" xmlns="http://www.w3.org/2000/svg">
        <path d="M10 16.875C10 16.875 2.1875 12.5 2.1875 7.18751C2.1875 6.24836 2.51289 5.33821 3.1083 4.61193C3.70371 3.88564 4.53236 3.38808 5.45328 3.2039C6.37419 3.01971 7.33047 3.16029 8.15943 3.6017C8.98838 4.04311 9.63879 4.7581 10 5.62501C10.3612 4.7581 11.0116 4.04311 11.8406 3.6017C12.6695 3.16029 13.6258 3.01971 14.5467 3.2039C15.4676 3.38808 16.2963 3.88564 16.8917 4.61193C17.4871 5.33821 17.8125 6.24836 17.8125 7.18751C17.8125 12.5 10 16.875 10 16.875Z"
              fill="#FA2929"/>
    </symbol>

    <symbol id="svg-thanksCheck" viewBox="0 0 72 72" fill="none" xmlns="http://www.w3.org/2000/svg">
        <circle cx="36" cy="36" r="36" fill="url(#paint0_linear_2181_125554)"/>
        <path d="M48.375 28.125L32.625 43.875L24.75 36" stroke="white" stroke-width="2" stroke-linecap="round" stroke-linejoin="round"/>
        <defs>
            <linearGradient id="paint0_linear_2181_125554" x1="36" y1="16.4937" x2="36" y2="71.4586" gradientUnits="userSpaceOnUse">
                <stop stop-color="#BDFF6C"/>
                <stop offset="0.93" stop-color="#28CD3F"/>
            </linearGradient>
        </defs>
    </symbol>

    <symbol id="svg-yzNoResults" viewBox="0 0 96 96" fill="none" xmlns="http://www.w3.org/2000/svg">
        <circle cx="48" cy="48" r="48" fill="#CAFFA0"/>
        <path d="M52.5 64C41.1782 64 32 54.8218 32 43.5C32 32.1782 41.1782 23 52.5 23C63.8218 23 73 32.1782 73 43.5C73 54.8218 63.8218 64 52.5 64Z"
              stroke="#383838" stroke-linecap="round" stroke-linejoin="round"/>
        <path d="M38 58L23 73" stroke="#383838" stroke-linecap="round" stroke-linejoin="round"/>
        <circle cx="49" cy="40" r="0.5" fill="#383838" stroke="#383838"/>
        <circle cx="56" cy="40" r="0.5" fill="#383838" stroke="#383838"/>
        <line x1="47" y1="48.5" x2="59" y2="48.5" stroke="#383838"/>
    </symbol>

    <symbol id="svg-Compare_checked" viewBox="0 0 20 20" fill="none" xmlns="http://www.w3.org/2000/svg">
        <path d="M3.125 5H16.875" stroke="#383838" stroke-width="1.2" stroke-linecap="round" stroke-linejoin="round"/>
        <path d="M3.125 10H16.875" stroke="#383838" stroke-width="1.2" stroke-linecap="round" stroke-linejoin="round"/>
        <path d="M3.125 15H11.25" stroke="#383838" stroke-width="1.2" stroke-linecap="round" stroke-linejoin="round"/>
        <path d="M18.2554 13.3335L14.9741 16.6147L13.3335 14.9741" stroke="#383838" stroke-width="1.2" stroke-linecap="round"
              stroke-linejoin="round"/>
    </symbol>

    <symbol id="svg-ArrowsDownUp" viewBox="0 0 24 24" style="enable-background:new 0 0 24 24" xml:space="preserve" xmlns="http://www.w3.org/2000/svg"><style>.acst0{fill:#383838}</style>
        <path class="acst0"
              d="M7.5 20.1c-.2 0-.3-.1-.4-.2l-3-3c-.2-.2-.2-.6 0-.8.2-.2.6-.2.8 0l2.6 2.6 2.6-2.6c.2-.2.6-.2.8 0 .2.2.2.6 0 .8l-3 3c-.1.1-.2.2-.4.2z"/>
        <path class="acst0"
              d="M7.5 20.1c-.3 0-.6-.3-.6-.6v-15c0-.3.3-.6.6-.6s.6.3.6.6v15c0 .3-.3.6-.6.6zM19.5 8.1c-.2 0-.3-.1-.4-.2l-2.6-2.6-2.6 2.6c-.2.2-.6.2-.8 0-.2-.2-.2-.6 0-.8l3-3c.2-.2.6-.2.8 0l3 3c.2.2.2.6 0 .8-.1.1-.2.2-.4.2z"/>
        <path class="acst0" d="M16.5 20.1c-.3 0-.6-.3-.6-.6v-15c0-.3.3-.6.6-.6s.6.3.6.6v15c0 .3-.3.6-.6.6z"/></symbol>


    <symbol id="svg-Bed" viewBox="0 0 24 24" style="enable-background:new 0 0 24 24" xml:space="preserve" xmlns="http://www.w3.org/2000/svg"><style>.adst0{fill:#383838}</style>
        <path class="adst0"
              d="M22.5 16.3c-.3 0-.6-.3-.6-.6v-5.2c0-.6-.3-1.2-.7-1.7-.5-.5-1.1-.7-1.7-.7h-9.1v7.6c0 .3-.3.6-.6.6s-.6-.3-.6-.6V7.5c0-.3.3-.6.6-.6h9.8c1 0 1.9.4 2.5 1.1.7.7 1.1 1.6 1.1 2.5v5.2c-.1.4-.4.6-.7.6zM1.5 20.1c-.3 0-.6-.3-.6-.6v-15c0-.3.3-.6.6-.6s.6.3.6.6v15c0 .3-.3.6-.6.6z"/>
        <path class="adst0"
              d="M22.5 20.1c-.3 0-.6-.3-.6-.6v-3.2H1.5c-.3 0-.6-.3-.6-.6s.3-.6.6-.6h21c.3 0 .6.3.6.6v3.8c0 .3-.3.6-.6.6zM9.8 8.1H1.5c-.3 0-.6-.3-.6-.6s.3-.6.6-.6h8.2c.3 0 .6.3.6.6s-.2.6-.5.6z"/></symbol>


    <symbol id="svg-Briefcase" viewBox="0 0 24 24" style="enable-background:new 0 0 24 24" xml:space="preserve" xmlns="http://www.w3.org/2000/svg"><style>.aest0{fill:#383838}</style>
        <path class="aest0"
              d="M20.2 20.8H3.8c-.7 0-1.4-.6-1.4-1.3v-12c0-.7.6-1.4 1.4-1.4h16.5c.7 0 1.3.6 1.3 1.4v12c0 .7-.6 1.3-1.4 1.3zM3.8 7.4c-.1 0-.1.1-.1.1v12c0 .1.1.2.1.2h16.5c.1 0 .2-.1.2-.2v-12c0-.1-.1-.1-.2-.1H3.8z"/>
        <path class="aest0"
              d="M15.8 7.4c-.3 0-.6-.3-.6-.6V5.2c0-.2-.1-.5-.3-.6-.2-.2-.4-.3-.6-.3H9.8c-.2 0-.5.1-.6.3s-.3.4-.3.6v1.5c0 .3-.3.6-.6.6s-.7-.2-.7-.5V5.2c0-.6.2-1.1.6-1.5.4-.4.9-.6 1.5-.6h4.5c.6 0 1.1.2 1.5.6.4.4.6.9.6 1.5v1.5c0 .4-.2.7-.5.7zM12 14.8c-3.2 0-6.4-.9-9.3-2.5-.3-.2-.4-.5-.2-.8.2-.3.5-.4.8-.2 2.6 1.5 5.6 2.3 8.7 2.3 3 0 6-.8 8.7-2.3.3-.2.7-.1.8.2s.1.7-.2.8c-2.8 1.7-6 2.5-9.3 2.5 0 .1 0 0 0 0z"/>
        <path class="aest0" d="M13.1 11.9h-2.2c-.3 0-.6-.3-.6-.6s.3-.6.6-.6h2.2c.3 0 .6.3.6.6s-.2.6-.6.6z"/></symbol>


    <symbol id="svg-Cap" viewBox="0 0 24 24" style="enable-background:new 0 0 24 24" xml:space="preserve" xmlns="http://www.w3.org/2000/svg"><style>.afst0{fill:#383838}</style>
        <path class="afst0"
              d="M12 15.6c-.1 0-.2 0-.3-.1L.5 9.5C.3 9.4.1 9.2.1 9s.1-.4.3-.5l11.2-6c.2-.1.4-.1.6 0l11.2 6c.2.1.3.3.3.5s-.1.4-.3.5l-11.2 6c0 .1-.1.1-.2.1zM2 9l10 5.3L22 9 12 3.7 2 9z"/>
        <path class="afst0" d="M17.6 23.1c-.3 0-.6-.3-.6-.6V12.4l-5.3-2.8c-.3-.2-.4-.5-.2-.8.2-.3.5-.4.8-.2l5.6 3c.2.1.3.3.3.5v10.5c0 .2-.2.5-.6.5z"/>
        <path class="afst0"
              d="M12 20.5c-5.4 0-8.2-3.2-9-4.2-.2-.2-.3-.5-.3-.8v-5.1c0-.3.3-.6.6-.6s.7.3.7.6v5.1c.7.9 3.1 3.8 8 3.8s7.4-2.8 8-3.7v-5.2c0-.3.3-.6.6-.6s.6.3.6.6v5.1c0 .3-.1.6-.3.8-.7 1-3.5 4.2-8.9 4.2z"/></symbol>


    <symbol id="svg-ChartBar" viewBox="0 0 24 24" style="enable-background:new 0 0 24 24" xml:space="preserve" xmlns="http://www.w3.org/2000/svg"><style>.agst0{fill:#383838}</style>
        <path class="agst0" d="M4.1 20.1c-.3 0-.6-.3-.6-.6v-6.8c0-.3.3-.6.6-.6h5.2c.3 0 .6.3.6.6s-.3.6-.6.6H4.7v6.2c0 .3-.2.6-.6.6z"/>
        <path class="agst0" d="M21.4 20.1H2.6c-.3 0-.6-.3-.6-.6s.3-.6.6-.6h18.8c.3 0 .6.3.6.6s-.3.6-.6.6z"/>
        <path class="agst0" d="M9.4 20.1c-.3 0-.6-.3-.6-.6V8.2c0-.3.3-.6.6-.6h5.2c.3 0 .6.3.6.6s-.2.7-.6.7H10v10.6c0 .3-.3.6-.6.6z"/>
        <path class="agst0"
              d="M19.9 20.1h-5.2c-.3 0-.6-.3-.6-.6V3.8c0-.3.3-.6.6-.6h5.2c.3 0 .6.3.6.6v15.8c0 .2-.3.5-.6.5zm-4.7-1.2h4.1V4.4h-4.1v14.5z"/></symbol>


    <symbol fill="none" viewBox="0 0 20 20" id="svg-ChatGreen" xmlns="http://www.w3.org/2000/svg">
        <path d="M3.547 13.828a7.492 7.492 0 1 1 2.625 2.625l-2.594.734a.617.617 0 0 1-.765-.765l.734-2.594Z" fill="#28CE3F"/>
        <path d="M10 10.938a.937.937 0 1 0 0-1.875.937.937 0 0 0 0 1.874ZM6.25 10.938a.937.937 0 1 0 0-1.875.937.937 0 0 0 0 1.874ZM13.75 10.938a.937.937 0 1 0 0-1.875.937.937 0 0 0 0 1.874Z"
              fill="#fff"/>
    </symbol>


    <symbol id="svg-CheckStyled" viewBox="0 0 24 24" style="enable-background:new 0 0 24 24" xml:space="preserve" xmlns="http://www.w3.org/2000/svg"><style>.st0{clip-path:url(#SVGID_00000002368090390893940600000017205567459643776922_)}</style>
        <defs><path id="alSVGID_1_" d="M0 0h24v24H0z"/></defs>
        <clipPath id="alSVGID_00000142153215827680123390000010304265163794943626_"><use xlink:href="#alSVGID_1_" style="overflow:visible"/></clipPath>
        <g style="clip-path:url(#alSVGID_00000142153215827680123390000010304265163794943626_)"><path d="M5.1 18.9c-.9-.9-.3-2.7-.7-3.7-.4-1.1-2.1-2-2.1-3.2S4 9.9 4.4 8.8c.4-1.1-.2-2.8.7-3.7.9-.9 2.7-.3 3.7-.7 1.1-.4 2-2.1 3.2-2.1s2.1 1.7 3.2 2.1c1.1.5 2.9-.1 3.7.7.9.9.3 2.7.7 3.7.4 1.1 2.1 2 2.1 3.2s-1.7 2.1-2.1 3.2c-.5 1.1.1 2.9-.7 3.7-.9.9-2.7.3-3.7.7-1.1.4-2 2.1-3.2 2.1S9.9 20 8.8 19.6c-1.1-.4-2.8.2-3.7-.7z" style="fill:#383838"/>
            <path d="M10.6 15.8c-.2 0-.4-.1-.5-.2L7.4 13c-.3-.3-.3-.8 0-1.1.3-.3.8-.3 1.1 0l2.2 2.1 5-4.8c.3-.3.8-.3 1.1 0 .3.3.3.8 0 1.1l-5.5 5.3c-.3.1-.5.2-.7.2z"
                  style="fill:#fff"/></g></symbol>


    <symbol id="svg-Close" viewBox="0 0 24 24" style="enable-background:new 0 0 24 24" xml:space="preserve" xmlns="http://www.w3.org/2000/svg"><style>.amst0{fill:#383838}</style>
        <path class="amst0" d="M5.2 19.3c-.2 0-.3-.1-.4-.2-.2-.2-.2-.6 0-.8L18.3 4.8c.2-.2.6-.2.8 0s.2.6 0 .8L5.7 19.2c-.1.1-.3.1-.5.1z"/>
        <path class="amst0" d="M18.8 19.3c-.2 0-.3-.1-.4-.2L4.8 5.7c-.2-.2-.2-.6 0-.8s.6-.2.8 0l13.5 13.5c.2.2.2.6 0 .8 0 .1-.2.1-.3.1z"/></symbol>


    <symbol id="svg-Compare" viewBox="0 0 24 24" style="enable-background:new 0 0 24 24" xml:space="preserve" xmlns="http://www.w3.org/2000/svg">
        <path class="anst0"
              d="M20.2 6.6H3.8c-.4 0-.7-.3-.7-.6s.3-.6.6-.6h16.5c.3 0 .6.3.6.6s-.2.6-.6.6zM20.2 12.6H3.8c-.3 0-.6-.3-.6-.6s.3-.6.6-.6h16.5c.3 0 .6.3.6.6s-.3.6-.7.6zM13.5 18.6H3.8c-.3 0-.6-.3-.6-.6s.3-.6.6-.6h9.8c.3 0 .6.3.6.6s-.4.6-.7.6zM21.8 18.6h-4.5c-.3 0-.6-.3-.6-.6s.3-.6.6-.6h4.5c.3 0 .6.3.6.6s-.3.6-.6.6z"/>
        <path class="anst0" d="M19.5 20.8c-.3 0-.6-.3-.6-.6v-4.5c0-.3.3-.6.6-.6s.6.3.6.6v4.5c0 .4-.3.6-.6.6z"/></symbol>

    <symbol viewBox="0 0 20 20" id="svg-white_phone" fill="none" xmlns="http://www.w3.org/2000/svg">
        <path d="M7.22656 9.74966C7.8697 11.0778 8.94365 12.149 10.2734 12.7887C10.3715 12.8352 10.48 12.8553 10.5882 12.8471C10.6965 12.8388 10.8007 12.8026 10.8906 12.7418L12.8437 11.4372C12.93 11.3786 13.0298 11.3429 13.1336 11.3334C13.2374 11.3238 13.342 11.3407 13.4375 11.3825L17.0937 12.9528C17.2187 13.0048 17.3231 13.0964 17.3909 13.2136C17.4586 13.3308 17.486 13.467 17.4687 13.6012C17.3529 14.5057 16.9114 15.337 16.2269 15.9395C15.5424 16.542 14.6619 16.8745 13.75 16.8747C10.9321 16.8747 8.22956 15.7552 6.23699 13.7627C4.24442 11.7701 3.125 9.06759 3.125 6.24966C3.12521 5.33778 3.45767 4.45722 4.06018 3.77275C4.66268 3.08828 5.49395 2.64679 6.39844 2.53091C6.53269 2.51366 6.66888 2.54103 6.78605 2.60879C6.90322 2.67655 6.99486 2.78095 7.04687 2.90591L8.61719 6.56997C8.65802 6.66399 8.67511 6.76662 8.66693 6.8688C8.65876 6.97098 8.62558 7.06958 8.57031 7.15591L7.26562 9.14029C7.20754 9.23004 7.17345 9.33319 7.16661 9.43988C7.15977 9.54657 7.18041 9.65323 7.22656 9.74966Z"
              fill="white"/>
    </symbol>

    <symbol id="svg-Envelope" viewBox="0 0 24 24" style="enable-background:new 0 0 24 24" xml:space="preserve" xmlns="http://www.w3.org/2000/svg">
        <path class="aost0"
              d="M12 14.1c-.1 0-.3-.1-.4-.2l-9-8.2c-.2-.2-.3-.6 0-.8.2-.2.6-.3.8 0l8.6 7.9 8.6-7.9c.2-.2.6-.2.8 0 .2.2.2.6 0 .8l-9 8.2c-.1.1-.3.2-.4.2z"/>
        <path class="aost0"
              d="M20.2 19.3H3.8c-.4 0-.7-.1-1-.4-.3-.3-.4-.6-.4-1V5.2c0-.3.3-.6.6-.6h18c.3 0 .6.3.6.6V18c0 .4-.1.7-.4 1-.3.2-.6.3-1 .3zM3.6 5.9v12.2H20.3V5.9H3.6z"/>
        <path class="aost0"
              d="M3.2 19.1c-.2 0-.3-.1-.4-.2-.2-.2-.2-.6 0-.8l7.1-6.5c.2-.2.6-.2.8 0 .2.2.2.6 0 .8L3.6 19c-.1.1-.2.1-.4.1zM20.8 19.1c-.1 0-.3-.1-.4-.2l-7.1-6.5c-.2-.2-.3-.6 0-.8.2-.2.6-.3.8 0l7.1 6.5c.2.2.3.6 0 .8-.1.2-.3.2-.4.2z"/></symbol>


    <symbol id="svg-Eye" viewBox="0 0 24 24" style="enable-background:new 0 0 24 24" xml:space="preserve" xmlns="http://www.w3.org/2000/svg"><style>.apst0{fill:#383838}</style>
        <path class="apst0"
              d="M12 19.3c-7.8 0-11-7-11-7.1-.1-.2-.1-.3 0-.5 0-.1 3.2-7.1 11-7.1s11 7 11 7.1c.1.2.1.3 0 .5 0 .1-3.2 7.1-11 7.1zM2.2 12c.6 1.2 3.5 6.1 9.8 6.1 6.2 0 9.2-5 9.8-6.2-.6-1.2-3.5-6.1-9.8-6.1-6.2.1-9.2 5-9.8 6.2z"/>
        <path class="apst0"
              d="M12 16.3c-2.4 0-4.4-2-4.4-4.3s2-4.4 4.4-4.4 4.3 2 4.3 4.4-1.9 4.3-4.3 4.3zm0-7.4c-1.7 0-3.1 1.4-3.1 3.1 0 1.7 1.4 3.2 3.1 3.2 1.7 0 3.2-1.4 3.2-3.2 0-1.7-1.5-3.1-3.2-3.1z"/></symbol>


    <symbol id="svg-EyeSlash" viewBox="0 0 24 24" style="enable-background:new 0 0 24 24" xml:space="preserve" xmlns="http://www.w3.org/2000/svg"><style>.aqst0{fill:#383838}</style>
        <path class="aqst0" d="M19.5 20.8c-.2 0-.3-.1-.4-.2L4.1 4.2c-.2-.2-.2-.6 0-.8.2-.2.6-.2.8 0l15 16.5c.2.2.2.6 0 .8-.1.1-.3.1-.4.1z"/>
        <path class="aqst0"
              d="M12 16.3c-.9 0-1.7-.3-2.5-.8-.7-.5-1.3-1.2-1.6-2-.3-.8-.4-1.7-.2-2.6.3-.8.7-1.5 1.4-2.1.2-.2.6-.2.8 0 .2.2.2.6 0 .8-.5.4-.8 1-.9 1.6-.1.6-.1 1.3.1 1.9.2.6.6 1.1 1.2 1.5.5.4 1.2.6 1.8.6.8 0 1.5-.3 2.1-.8.2-.2.6-.2.8 0 .2.2.2.6 0 .8-.9.7-1.9 1.1-3 1.1z"/>
        <path class="aqst0"
              d="M12.1 19.4s-.1 0 0 0c-7.9 0-11.1-7-11.1-7.1-.1-.2-.1-.3 0-.5 0-.2 1.7-3.9 5.7-5.9.3-.2.7 0 .8.3.1.3 0 .7-.3.8-3 1.5-4.6 4.2-5 5 .6 1.2 3.5 6.1 9.8 6.1 1.7 0 3.3-.4 4.8-1.1.3-.1.7 0 .8.3.1.3 0 .7-.3.8-1.6.8-3.4 1.3-5.2 1.3zM19.6 16.5c-.2 0-.3-.1-.4-.2-.2-.2-.2-.6 0-.8 1.5-1.4 2.4-2.8 2.7-3.4-.6-1.2-3.5-6.1-9.8-6.1-.6 0-1.2 0-1.8.2-.5-.1-.8-.4-.8-.7-.1-.3.1-.6.5-.7.7-.1 1.4-.1 2-.2 7.8 0 11 7 11 7.1.1.2.1.3 0 .5 0 .1-1 2.2-3.1 4.1-.1.1-.2.2-.3.2z"/>
        <path class="aqst0"
              d="M15.7 12.2c-.3 0-.6-.2-.6-.5-.1-.7-.3-1.3-.8-1.8s-1.1-.8-1.7-1c-.3-.1-.5-.4-.5-.7.1-.3.4-.5.7-.5.9.2 1.8.7 2.4 1.3.6.7 1 1.6 1.1 2.5.1.4-.2.7-.6.7.1 0 0 0 0 0z"/></symbol>


    <symbol id="svg-Filters" viewBox="0 0 24 24" style="enable-background:new 0 0 24 24" xml:space="preserve" xmlns="http://www.w3.org/2000/svg"><style>.asst0{fill:#383838}</style>
        <path class="asst0"
              d="M13.9 16.7H3.8c-.3 0-.6-.3-.6-.6s.3-.6.6-.6h10.1c.3 0 .6.3.6.6s-.3.6-.6.6zM20.2 16.7h-2.6c-.3 0-.6-.3-.6-.6s.3-.6.6-.6h2.6c.3 0 .6.3.6.6s-.2.6-.6.6z"/>
        <path class="asst0"
              d="M15.8 18.6c-1.4 0-2.5-1.1-2.5-2.5s1.1-2.5 2.5-2.5 2.5 1.1 2.5 2.5-1.2 2.5-2.5 2.5zm0-3.8c-.7 0-1.3.6-1.3 1.3s.6 1.3 1.3 1.3 1.3-.6 1.3-1.3-.6-1.3-1.3-1.3zM7.9 8.5H3.8c-.3 0-.6-.3-.6-.6s.3-.6.6-.6h4.1c.3 0 .6.3.6.6s-.3.6-.6.6zM20.2 8.5h-8.6c-.3 0-.6-.3-.6-.6s.3-.6.6-.6h8.6c.3 0 .6.3.6.6s-.2.6-.6.6z"/>
        <path class="asst0"
              d="M9.8 10.4c-1.4 0-2.5-1.1-2.5-2.5s1.1-2.5 2.5-2.5 2.5 1.1 2.5 2.5-1.2 2.5-2.5 2.5zm0-3.8c-.8 0-1.3.6-1.3 1.3S9 9.1 9.8 9.1 11 8.6 11 7.9s-.5-1.3-1.2-1.3z"/></symbol>


    <symbol id="svg-Gov" viewBox="0 0 24 24" style="enable-background:new 0 0 24 24" xml:space="preserve" xmlns="http://www.w3.org/2000/svg"><style>.atst0{fill:#383838}</style>
        <path class="atst0"
              d="M21.8 9.6H2.2c-.2 0-.5-.2-.5-.4-.1-.3 0-.5.3-.7l9.8-6c.2-.1.4-.1.6 0l9.8 6c.2.1.3.4.3.7s-.5.4-.7.4zM4.4 8.4h15.3L12 3.7 4.4 8.4zM5.2 19.1c-.3 0-.6-.3-.6-.6V11c0-.3.3-.6.6-.6s.6.3.6.6v7.5c.1.3-.2.6-.6.6zM9.8 19.1c-.3 0-.6-.3-.6-.6V11c0-.3.3-.6.6-.6s.6.3.6.6v7.5c0 .3-.3.6-.6.6zM14.2 19.1c-.3 0-.6-.3-.6-.6V11c0-.3.3-.6.6-.6s.6.3.6.6v7.5c0 .3-.2.6-.6.6zM18.8 19.1c-.3 0-.6-.3-.6-.6V11c0-.3.3-.6.6-.6s.6.3.6.6v7.5c-.1.3-.3.6-.6.6zM21.8 21.6H2.2c-.3 0-.6-.3-.6-.6s.3-.6.6-.6h19.5c.3 0 .6.3.6.6s-.2.6-.5.6z"/></symbol>


    <symbol id="svg-Laptop" viewBox="0 0 24 24" style="enable-background:new 0 0 24 24" xml:space="preserve" xmlns="http://www.w3.org/2000/svg"><style>.avst0{fill:#383838}</style>
        <path class="avst0"
              d="M21 16.3c-.3 0-.6-.3-.6-.6V5.1H3.7v10.6c0 .3-.3.6-.6.6s-.6-.3-.6-.6V5.2c0-.4.1-.7.4-1s.6-.4 1-.4h16.5c.4 0 .7.1 1 .4.3.3.4.6.4 1v10.5c-.2.4-.5.6-.8.6zM22.5 19.3h-21c-.3 0-.6-.3-.6-.6s.3-.6.6-.6h21c.3 0 .6.3.6.6s-.3.6-.6.6z"/>
        <path class="avst0"
              d="M17.2 19.3c-.3 0-.6-.3-.6-.6v-2.4h-4.8v2.4c0 .3-.3.6-.6.6s-.6-.3-.6-.6v-3c0-.3.3-.6.6-.6h6c.3 0 .6.3.6.6v3c0 .4-.2.6-.6.6z"/></symbol>


    <symbol id="svg-List" viewBox="0 0 24 24" style="enable-background:new 0 0 24 24" xml:space="preserve" xmlns="http://www.w3.org/2000/svg"><style>.awst0{fill:#383838}</style>
        <path class="awst0"
              d="M20.2 12.6H3.8c-.3 0-.6-.3-.6-.6s.3-.6.6-.6h16.5c.3 0 .6.3.6.6s-.3.6-.7.6zM20.2 6.6H3.8c-.4 0-.7-.3-.7-.6s.3-.6.6-.6h16.5c.3 0 .6.3.6.6s-.2.6-.6.6zM20.2 18.6H3.8c-.3 0-.6-.3-.6-.6s.3-.6.6-.6h16.5c.3 0 .6.3.6.6s-.3.6-.7.6z"/></symbol>


    <symbol viewBox="0 0 24 24" style="enable-background:new 0 0 24 24" xml:space="preserve" id="svg-Location" xmlns="http://www.w3.org/2000/svg"><path d="M9.7 21.4c-.6 0-1.1-.4-1.3-.9L2.9 4.7c-.1-.2-.1-.5 0-.7.1-.3.2-.6.4-.7s.4-.3.6-.4c.3-.1.5 0 .7 0l15.9 5.5c.6.2.9.7.9 1.3 0 .6-.4 1.1-1 1.3l-7.2 2.2-.1.1-2.1 7.2c-.2.6-.7.9-1.3.9zM4.3 4.1h-.2v.2l5.5 15.9.1.1c.1 0 .1 0 .1-.1L12 13l.3-.6c.2-.2.4-.3.6-.3L20 9.9c.1 0 .1-.1.1-.1 0-.1-.1-.1-.1-.1L4.3 4.1z" style="fill:#383838"/></symbol>


    <symbol fill="none" viewBox="0 0 20 20" id="svg-LocationGrey" xmlns="http://www.w3.org/2000/svg">
        <path d="m2.92 3.719 4.578 13.226c.195.57 1.008.555 1.187-.023l1.844-5.984a.586.586 0 0 1 .414-.407l5.977-1.843c.578-.18.593-.992.023-1.188L3.717 2.922a.625.625 0 0 0-.797.797Z"
              fill="#D8D8D8"/>
    </symbol>


    <symbol id="svg-Medal" viewBox="0 0 24 24" style="enable-background:new 0 0 24 24" xml:space="preserve" xmlns="http://www.w3.org/2000/svg"><style>.bast0{fill:#383838}</style>
        <path class="bast0"
              d="M12 17.1c-4.5 0-8.1-3.6-8.1-8.1S7.5.9 12 .9s8.1 3.6 8.1 8.1-3.6 8.1-8.1 8.1zm0-15C8.2 2.1 5.1 5.2 5.1 9s3.1 6.9 6.9 6.9 6.9-3.1 6.9-6.9-3.1-6.9-6.9-6.9z"/>
        <path class="bast0"
              d="M12 14.1c-2.8 0-5.1-2.3-5.1-5.1S9.2 3.9 12 3.9s5.1 2.3 5.1 5.1-2.3 5.1-5.1 5.1zm0-9C9.8 5.1 8.1 6.8 8.1 9s1.7 3.9 3.9 3.9 3.9-1.7 3.9-3.9-1.7-3.9-3.9-3.9zM16.5 23.1c-.1 0-.2 0-.3-.1L12 20.9 7.8 23c-.2.1-.4.1-.6 0-.2-.1-.3-.3-.3-.5V15c0-.3.3-.6.6-.6s.6.3.6.6v6.5l3.6-1.8c.2-.1.4-.1.5 0l3.6 1.8V15c0-.3.3-.6.6-.6s.6.3.6.6v7.5c0 .2-.1.4-.3.5 0 .1-.1.1-.2.1z"/></symbol>


    <symbol viewBox="0 0 24 24" style="enable-background:new 0 0 24 24" xml:space="preserve" id="svg-Phone" xmlns="http://www.w3.org/2000/svg">
        <path d="M16.5 20.8c-3.6 0-6.9-1.4-9.4-3.9S3.2 11 3.2 7.5c0-1.2.5-2.4 1.3-3.4.8-.9 1.9-1.5 3.2-1.7.3 0 .6 0 .8.2.2.2.4.4.5.7l1.9 4.4c.1.1.1.4.1.6 0 .2-.1.4-.2.6l-1.6 2.4-.5.4.5-.3c.7 1.5 1.9 2.7 3.4 3.4h.1l2.3-1.6c.2-.1.4-.2.6-.2.2 0 .4 0 .7.1l4.4 1.9c.3.1.5.3.6.6.1.3.2.6.2.8-.2 1.2-.8 2.4-1.7 3.2-.9.8-2.1 1.2-3.3 1.2zM7.7 3l.1.6c-1 .2-1.9.6-2.5 1.3-.6.7-1 1.6-1 2.6 0 3.2 1.3 6.3 3.6 8.6s5.3 3.6 8.6 3.6c.9 0 1.9-.3 2.6-1 .7-.6 1.2-1.5 1.3-2.4l-.1-.1-4.4-1.9h-.1l-2.3 1.6c-.3 0-.5.1-.7.1-.2 0-.5 0-.7-.1-1.7-.8-3.1-2.2-4-3.9-.1-.2-.1-.5-.1-.7 0-.2.1-.5.2-.6l1.6-2.4v-.1L7.9 3.7 7.7 3z"/></symbol>


    <symbol id="svg-Plus" viewBox="0 0 24 24" style="enable-background:new 0 0 24 24" xml:space="preserve" xmlns="http://www.w3.org/2000/svg"><style>.bcst0{fill:#383838}</style>
        <path class="bcst0" d="M20.2 12.6H3.8c-.3 0-.6-.3-.6-.6s.3-.6.6-.6h16.5c.3 0 .6.3.6.6s-.3.6-.7.6z"/>
        <path class="bcst0" d="M12 20.8c-.3 0-.6-.3-.6-.6V3.8c0-.3.3-.6.6-.6s.6.3.6.6v16.5c0 .3-.3.5-.6.5z"/></symbol>


    <symbol id="svg-Question" viewBox="0 0 24 24" style="enable-background:new 0 0 24 24" xml:space="preserve" xmlns="http://www.w3.org/2000/svg"><style>.best0{fill:#383838}</style>
        <path class="best0"
              d="M12 21.6c-5.3 0-9.6-4.3-9.6-9.6S6.7 2.4 12 2.4s9.6 4.3 9.6 9.6-4.3 9.6-9.6 9.6zm0-18c-4.6 0-8.4 3.8-8.4 8.4s3.8 8.4 8.4 8.4 8.4-3.8 8.4-8.4-3.8-8.4-8.4-8.4z"/>
        <path class="best0"
              d="M12 18c.6 0 1.1-.5 1.1-1.1s-.5-1.1-1.1-1.1-1.1.5-1.1 1.1.5 1.1 1.1 1.1zM12 14.1c-.3 0-.6-.3-.6-.6v-.8c0-.3.3-.6.6-.6.4 0 .8-.1 1.1-.3.3-.2.6-.5.7-.9.2-.4.2-.8.1-1.2-.1-.4-.3-.8-.6-1s-.6-.5-1-.6c-.4-.1-.8 0-1.2.1s-.6.5-.8.8c-.2.3-.3.7-.3 1.1 0 .3-.3.6-.6.6s-.6-.3-.6-.6c0-.6.2-1.3.5-1.8.4-.5.9-.9 1.4-1.2.7-.2 1.3-.3 1.9-.1.6.1 1.2.4 1.7.9s.8 1 .9 1.7c.1.6.1 1.3-.2 1.9-.2.6-.7 1.1-1.2 1.4-.4.2-.8.4-1.2.5v.2c0 .2-.3.5-.6.5z"/></symbol>


    <symbol id="svg-Ruble" viewBox="0 0 24 24" style="enable-background:new 0 0 24 24" xml:space="preserve" xmlns="http://www.w3.org/2000/svg"><style>.bgst0{fill:#383838}</style>
        <path class="bgst0" d="M13.5 17.1H5.2c-.3 0-.6-.3-.6-.6s.3-.6.6-.6h8.2c.3 0 .6.3.6.6s-.2.6-.5.6z"/>
        <path class="bgst0"
              d="M8.2 20.8c-.3 0-.6-.3-.6-.6V14H5.2c-.3 0-.6-.3-.6-.6s.3-.6.6-.6h2.4v-9c0-.3.3-.6.6-.6h5.6c1.5 0 2.8.6 3.9 1.6 1 1 1.6 2.4 1.6 3.9s-.6 2.8-1.6 3.9c-1 1-2.4 1.6-3.9 1.6h-5v6.2c.1.2-.2.4-.6.4zm.7-7.9h5c1.1 0 2.2-.4 3-1.3.8-.8 1.3-1.9 1.3-3s-.4-2.2-1.3-3c-.8-.8-1.9-1.3-3-1.3h-5v8.6z"/></symbol>


    <symbol id="svg-Search" viewBox="0 0 24 24" style="enable-background:new 0 0 24 24" xml:space="preserve" xmlns="http://www.w3.org/2000/svg">
        <path class="bhst0"
              d="M10.9 19.3c-4.7 0-8.5-3.8-8.5-8.5s3.8-8.5 8.5-8.5 8.5 3.8 8.5 8.5c-.1 4.7-3.9 8.5-8.5 8.5zm0-15.7c-4 0-7.3 3.3-7.3 7.3s3.3 7.3 7.3 7.3 7.3-3.3 7.3-7.3-3.3-7.3-7.3-7.3z"/>
        <path class="bhst0" d="M21 21.6c-.2 0-.3-.1-.4-.2L16 16.9c-.2-.2-.2-.6 0-.8.2-.2.6-.2.8 0l4.6 4.6c.2.2.2.6 0 .8-.1 0-.2.1-.4.1z"/></symbol>


    <symbol viewBox="0 0 24 24" style="enable-background:new 0 0 24 24" xml:space="preserve" id="svg-SelectArrowDown"
            xmlns="http://www.w3.org/2000/svg">
        <path d="M12 17.1c-.2 0-.3-.1-.4-.2L4.1 9.4c-.2-.2-.2-.6 0-.8s.6-.2.8 0l7.1 7.1 7.1-7.1c.2-.2.6-.2.8 0s.2.6 0 .8l-7.5 7.5c-.1.1-.2.2-.4.2z"/></symbol>


    <symbol id="svg-SignOut" viewBox="0 0 24 24" style="enable-background:new 0 0 24 24" xml:space="preserve" xmlns="http://www.w3.org/2000/svg"><style>.bjst0{fill:#383838}</style>
        <path class="bjst0"
              d="M16.3 16.5c-.2 0-.3-.1-.4-.2-.2-.2-.2-.6 0-.8l3.5-3.5-3.5-3.5c-.2-.2-.2-.6 0-.8s.6-.2.8 0l3.9 3.9c.2.2.2.6 0 .8l-3.9 3.9c-.1.2-.2.2-.4.2z"/>
        <path class="bjst0" d="M20.2 12.6H9.8c-.3 0-.6-.3-.6-.6s.3-.6.6-.6h10.5c.3 0 .6.3.6.6s-.3.6-.7.6z"/>
        <path class="bjst0"
              d="M9.8 20.8H4.5c-.4 0-.7-.1-1-.4-.3-.3-.4-.6-.4-1v-15c0-.4.1-.7.4-1s.6-.4 1-.4h5.2c.3 0 .6.3.6.6s-.3.6-.6.6H4.4v15.2h5.3c.3 0 .6.3.6.6s-.2.8-.5.8z"/></symbol>


    <symbol viewBox="0 0 24 24" xml:space="preserve" id="svg-Star" xmlns="http://www.w3.org/2000/svg"><path d="M17.6 21.6c-.3 0-.5-.1-.7-.2l-4.7-3h-.1l-4.5 2.8c-.5.3-1.2.3-1.7-.1s-.8-1-.6-1.7l1.3-5v-.1s0-.1-.1-.1l-4.2-3.5c-.4-.4-.6-1-.4-1.5.2-.5.7-.9 1.2-1l5.5-.4h.1l.1-.1 2.1-5.2c.1-.3.3-.5.5-.6.5-.3 1.1-.3 1.6 0 .2.2.4.4.5.7l2.1 5.2.1.1h.1l5.2.3c.6 0 1.1.4 1.2 1 .2.6 0 1.2-.4 1.5l-4.2 3.5-.1.1v.1l1.4 5.4c.1.6-.1 1.2-.5 1.5-.3.2-.6.3-.8.3zm-4.9-4.2 4.7 3h.2s.1-.1.1-.2l-1.4-5.4c-.1-.3-.1-.5 0-.8.1-.3.2-.5.4-.6l4.2-3.5c.1-.1.1-.2.1-.2 0-.1-.1-.1-.2-.1l-5.5-.4c-.3 0-.5-.1-.7-.3-.2-.2-.4-.4-.5-.6L12.2 3c0-.1 0-.1-.1-.1h-.2s-.1 0-.1.1l-2 5.2c-.1.2-.3.4-.5.6-.2.1-.5.2-.7.3L3 9.4c-.1 0-.1.1-.2.1 0 0 0 .2.1.2l4.2 3.5c.2.2.4.4.4.6.1.3.1.5 0 .8l-1.3 5c-.1.2.1.4.1.4.1 0 .2.1.4 0l4.4-2.8c.6-.1 1.2-.1 1.6.2z"/></symbol>

    <symbol viewBox="0 0 14 14" id="svg-Black_star" xmlns="http://www.w3.org/2000/svg">
        <path d="M7.24105 10.4289L9.9973 12.1789C10.3528 12.4031 10.7903 12.0695 10.6864 11.6594L9.88793 8.52033C9.86633 8.43332 9.86977 8.34198 9.89783 8.25683C9.92589 8.17169 9.97743 8.0962 10.0465 8.03908L12.5184 5.97736C12.841 5.70939 12.677 5.16798 12.2559 5.14064L9.02933 4.93283C8.94129 4.9277 8.85665 4.89705 8.78576 4.8446C8.71486 4.79216 8.66078 4.7202 8.63011 4.63751L7.42699 1.60783C7.39514 1.52027 7.33712 1.44464 7.26081 1.3912C7.1845 1.33775 7.09359 1.30908 7.00042 1.30908C6.90726 1.30908 6.81635 1.33775 6.74004 1.3912C6.66373 1.44464 6.60571 1.52027 6.57386 1.60783L5.37074 4.63751C5.34007 4.7202 5.28599 4.79216 5.21509 4.8446C5.14419 4.89705 5.05956 4.9277 4.97152 4.93283L1.74496 5.14064C1.32386 5.16798 1.1598 5.70939 1.48246 5.97736L3.95433 8.03908C4.02342 8.0962 4.07496 8.17169 4.10302 8.25683C4.13108 8.34198 4.13451 8.43332 4.11292 8.52033L3.37464 11.4297C3.24886 11.9219 3.77386 12.3211 4.19496 12.0531L6.7598 10.4289C6.83172 10.3832 6.91519 10.3589 7.00042 10.3589C7.08566 10.3589 7.16913 10.3832 7.24105 10.4289Z"
              fill="#383838"/>
    </symbol>

    <symbol viewBox="0 0 16 16" id="svg-Black_question" fill="none" xmlns="http://www.w3.org/2000/svg">
        <path d="M8 14C11.3137 14 14 11.3137 14 8C14 4.68629 11.3137 2 8 2C4.68629 2 2 4.68629 2 8C2 11.3137 4.68629 14 8 14Z" fill="#DADADA"/>
        <path d="M8 12C8.41421 12 8.75 11.6642 8.75 11.25C8.75 10.8358 8.41421 10.5 8 10.5C7.58579 10.5 7.25 10.8358 7.25 11.25C7.25 11.6642 7.58579 12 8 12Z"
              fill="white"/>
        <path d="M8 9V8.5C8.34612 8.5 8.68446 8.39736 8.97225 8.20507C9.26003 8.01278 9.48434 7.73947 9.61679 7.4197C9.74924 7.09993 9.7839 6.74806 9.71637 6.40859C9.64885 6.06913 9.48218 5.75731 9.23744 5.51256C8.9927 5.26782 8.68087 5.10115 8.34141 5.03363C8.00194 4.9661 7.65008 5.00076 7.3303 5.13321C7.01053 5.26566 6.73722 5.48997 6.54493 5.77775C6.35264 6.06554 6.25 6.40388 6.25 6.75"
              stroke="white" stroke-width="1.2" stroke-linecap="round" stroke-linejoin="round"/>
    </symbol>

    <symbol id="svg-Student" viewBox="0 0 24 24" style="enable-background:new 0 0 24 24" xml:space="preserve" xmlns="http://www.w3.org/2000/svg"><style>.blst0{fill:#383838}</style>
        <path class="blst0"
              d="M3 14.1c-.3 0-.6-.3-.6-.6V6c0-.3.3-.6.6-.6s.6.3.6.6v7.5c0 .3-.3.6-.6.6zM5.1 20.8c-.1 0-.2 0-.3-.1-.3-.2-.4-.6-.2-.8.8-1.2 1.9-2.3 3.2-3 2.6-1.4 5.9-1.4 8.4 0 1.3.7 2.4 1.7 3.2 3 .2.3.1.6-.2.8-.3.2-.7.1-.8-.2-.7-1.1-1.7-1.9-2.8-2.6-2.2-1.2-5.1-1.2-7.3 0-1.1.6-2.1 1.5-2.8 2.6 0 .3-.2.3-.4.3z"/>
        <path class="blst0"
              d="M12 9.6h-.2l-9-3c-.2-.1-.4-.3-.4-.6s.2-.5.4-.6l9-3h.4l9 3c.2.1.4.3.4.6s-.2.5-.4.6l-9 3H12zM4.9 6 12 8.4 19.1 6 12 3.6 4.9 6z"/>
        <path class="blst0"
              d="M12 17.1c-1.1 0-2.2-.3-3.2-1-1-.6-1.7-1.5-2.2-2.5-.5-1-.6-2.2-.4-3.3.2-1.1.7-2.2 1.5-3 .2-.2.6-.3.8 0 .2.2.3.6 0 .8-.6.7-1 1.5-1.2 2.4-.1.9 0 1.8.3 2.6.4.8 1 1.5 1.7 2 1.5 1 3.6 1 5.1 0 .8-.5 1.4-1.2 1.7-2 .4-.8.5-1.7.3-2.6-.1-.9-.5-1.7-1.2-2.4-.2-.2-.2-.6 0-.8s.6-.2.8 0c.8.8 1.3 1.9 1.5 3 .2 1.1 0 2.3-.4 3.3-.5 1-1.2 1.9-2.2 2.5s-1.8 1-2.9 1z"/></symbol>


    <symbol id="svg-chat" viewBox="0 0 24 24" style="enable-background:new 0 0 24 24" xml:space="preserve" xmlns="http://www.w3.org/2000/svg"><style>.ahst0{fill:#383838}</style>
        <path class="ahst0"
              d="M12 21.6c-1.6 0-3.2-.4-4.7-1.2l-2.9.8c-.2.1-.5.1-.7 0-.2-.1-.4-.2-.6-.4-.2-.2-.3-.4-.3-.6-.1-.2-.1-.5 0-.7l.8-2.9c-1.1-2-1.5-4.2-1-6.5.4-2.2 1.7-4.2 3.5-5.7 1.8-1.4 4.1-2.1 6.5-2 2.3.1 4.5 1.1 6.2 2.8 1.7 1.7 2.6 3.8 2.8 6.2.1 2.3-.6 4.6-2 6.5-1.4 1.8-3.5 3.1-5.8 3.5-.6.1-1.2.2-1.8.2zm-4.6-2.5c.1 0 .2 0 .3.1 1.8 1 3.8 1.4 5.8 1 2-.4 3.8-1.5 5.1-3.1 1.3-1.6 1.9-3.6 1.7-5.7-.1-2-1-4-2.4-5.4-1.4-1.4-3.4-2.3-5.4-2.4-2-.1-4.1.5-5.7 1.7-1.6 1.3-2.7 3.1-3.1 5.1s0 4.1 1 5.8c.1.1.1.3.1.5L4 19.9v.1h.1l3.1-.9c.1.1.2 0 .2 0z"/>
        <path class="ahst0"
              d="M12 13.1c.6 0 1.1-.5 1.1-1.1s-.5-1.1-1.1-1.1-1.1.5-1.1 1.1.5 1.1 1.1 1.1zM7.5 13.1c.6 0 1.1-.5 1.1-1.1s-.5-1.1-1.1-1.1-1.1.5-1.1 1.1.5 1.1 1.1 1.1zM16.5 13.1c.6 0 1.1-.5 1.1-1.1s-.5-1.1-1.1-1.1-1.1.5-1.1 1.1.5 1.1 1.1 1.1z"/></symbol>


    <symbol viewBox="0 0 24 24" style="enable-background:new 0 0 24 24" xml:space="preserve" id="svg-check" xmlns="http://www.w3.org/2000/svg"><path d="M9.8 17.8c-.2 0-.3-.1-.4-.2l-5.2-5.2c-.2-.2-.2-.6 0-.8s.6-.2.8 0l4.8 4.8 10-10.1c.2-.2.6-.2.8 0s.2.6 0 .8L10.2 17.7c-.1.1-.3.1-.4.1z" style="fill:#383838"/></symbol>


    <symbol viewBox="0 0 24 24" style="enable-background:new 0 0 24 24" xml:space="preserve" id="svg-checkBlack" xmlns="http://www.w3.org/2000/svg"><circle cx="12" cy="12" r="12" style="fill:#383838"/>
        <path d="M10.5 16.1c-.2 0-.3-.1-.4-.2l-3.5-3.5c-.2-.2-.2-.6 0-.8s.6-.2.8 0l3.1 3.1 6.6-6.6c.2-.2.6-.2.8 0s.2.6 0 .8l-7 7c-.1.1-.2.2-.4.2z"
              style="fill:#fff"/></symbol>


    <symbol fill="none" viewBox="0 0 40 40" id="svg-facebook" xmlns="http://www.w3.org/2000/svg">
        <path d="M21.187 27.917v-7.59h2.82l.42-2.972h-3.24v-1.893c0-.857.263-1.445 1.619-1.445h1.718v-2.65a25.133 25.133 0 0 0-2.517-.117c-2.493 0-4.205 1.382-4.205 3.918v2.181H15v2.972h2.808v7.596h3.379Z"
              fill="#383838"/>
        <rect x=".5" y=".5" width="39" height="39" rx="11.5" stroke="#D8D8D8"/>
    </symbol>

    <symbol viewBox="0 0 20 20" id="svg-blueCheck" fill="none" xmlns="http://www.w3.org/2000/svg">
        <g clip-path="url(#clip0_3285_116466)">
            <path d="M4.25781 15.7422C3.53906 15.0234 4.01562 13.5156 3.64844 12.6328C3.28125 11.75 1.875 10.9766 1.875 10C1.875 9.02344 3.26562 8.28125 3.64844 7.36719C4.03125 6.45313 3.53906 4.97656 4.25781 4.25781C4.97656 3.53906 6.48438 4.01562 7.36719 3.64844C8.25 3.28125 9.02344 1.875 10 1.875C10.9766 1.875 11.7188 3.26562 12.6328 3.64844C13.5469 4.03125 15.0234 3.53906 15.7422 4.25781C16.4609 4.97656 15.9844 6.48438 16.3516 7.36719C16.7188 8.25 18.125 9.02344 18.125 10C18.125 10.9766 16.7344 11.7188 16.3516 12.6328C15.9688 13.5469 16.4609 15.0234 15.7422 15.7422C15.0234 16.4609 13.5156 15.9844 12.6328 16.3516C11.75 16.7188 10.9766 18.125 10 18.125C9.02344 18.125 8.28125 16.7344 7.36719 16.3516C6.45313 15.9688 4.97656 16.4609 4.25781 15.7422Z"
                  fill="#6DADF8"/>
            <path d="M13.4375 8.125L8.85156 12.5L6.5625 10.3125" stroke="white" stroke-width="1.5" stroke-linecap="round" stroke-linejoin="round"/>
        </g>
        <defs>
            <clipPath id="clip0_3285_116466">
                <rect width="20" height="20" fill="white"/>
            </clipPath>
        </defs>
    </symbol>


    <symbol viewBox="0 0 24 24" style="enable-background:new 0 0 24 24" xml:space="preserve" id="svg-heart" xmlns="http://www.w3.org/2000/svg"><path d="m12 20.9-.3-.2C11.3 20.6 2 15.3 2 8.6c0-1.3.4-2.5 1.2-3.5.8-1 1.9-1.6 3.2-1.9 1.3-.2 2.6 0 3.7.6.8.4 1.4 1 1.9 1.7.5-.7 1.2-1.3 1.9-1.7 1.1-.6 2.4-.8 3.7-.5 1.2.2 2.4.9 3.2 1.9.8 1 1.2 2.2 1.2 3.5 0 6.7-9.3 11.9-9.7 12.1l-.3.1zM7.5 4.4c-.3 0-.6 0-.8.1-1 .2-1.8.7-2.5 1.5-.6.8-1 1.7-1 2.7 0 5.3 7.2 10 8.8 10.9 1.6-.9 8.8-5.6 8.8-10.9 0-1-.3-1.9-1-2.7-.6-.8-1.5-1.3-2.5-1.5-1-.2-2 0-2.8.4S12.9 6.1 12.6 7L12 8.3 11.4 7c-.4-.9-1.1-1.7-1.9-2.1-.6-.4-1.3-.5-2-.5z" /></symbol>


    <symbol fill="none" viewBox="0 0 56 56" id="svg-preloader" xmlns="http://www.w3.org/2000/svg">
        <path d="m46.163 28.657-16.95 9.155c-.378.204-.793.309-1.212.309-.42 0-.834-.105-1.212-.31L9.837 28.658a1.2 1.2 0 0 1-.468-.462 1.364 1.364 0 0 1-.18-.679c0-.242.063-.477.18-.679a1.2 1.2 0 0 1 .467-.461l16.953-9.153c.378-.204.793-.31 1.212-.31.419 0 .834.106 1.211.31l16.95 9.152h.001a1.2 1.2 0 0 1 .468.462c.116.202.18.437.18.68 0 .241-.064.476-.18.678a1.2 1.2 0 0 1-.468.462Z"
              stroke="#383838"/>
    </symbol>


    <symbol fill="none" viewBox="0 0 120 58" id="svg-quiz" xmlns="http://www.w3.org/2000/svg">
        <path d="M44.159 0h70.325a5.025 5.025 0 0 1 4.969 5.785l-7.862 51.46H31.095l8.094-52.963A5.029 5.029 0 0 1 44.16 0Z" fill="url(#bfa)"/>
        <path d="M0 57.481h111.576" stroke="#383838" stroke-miterlimit="10"/>
        <path d="M37.233 37.377c-7.447 0-13.485-6.038-13.485-13.486s6.038-13.485 13.485-13.485c7.448 0 13.486 6.037 13.486 13.485 0 7.448-6.038 13.486-13.486 13.486ZM27.598 33.322l-9.735 9.736"
              stroke="#383838" stroke-linecap="round" stroke-linejoin="round"/>
        <defs>
            <linearGradient id="bfa" x1="88.646" y1="5.849" x2="87.371" y2="30.514" gradientUnits="userSpaceOnUse">
                <stop stop-color="#FBFFDE"/>
                <stop offset="1" stop-color="#B6FC86"/>
            </linearGradient>
        </defs>
    </symbol>


    <symbol fill="none" viewBox="0 0 40 40" id="svg-vk" xmlns="http://www.w3.org/2000/svg">
        <path d="M29.541 15.717c.14-.414 0-.717-.66-.717h-2.19c-.556 0-.81.262-.95.55 0 0-1.113 2.42-2.69 3.988-.51.456-.742.6-1.02.6-.138 0-.34-.144-.34-.557v-3.864c0-.496-.16-.717-.624-.717h-3.44c-.347 0-.557.23-.557.448 0 .47.789.579.87 1.902v2.872c0 .629-.127.744-.407.744-.741 0-2.546-2.428-3.617-5.207-.208-.54-.419-.758-.978-.758h-2.187c-.626 0-.751.262-.751.55 0 .518.742 3.08 3.454 6.469 1.809 2.314 4.355 3.568 6.674 3.568 1.39 0 1.563-.278 1.563-.759V23.08c0-.556.132-.669.572-.669.324 0 .88.146 2.18 1.261 1.482 1.322 1.728 1.915 2.561 1.915h2.188c.625 0 .937-.278.758-.828-.197-.547-.906-1.343-1.846-2.285-.51-.538-1.274-1.116-1.507-1.405-.324-.373-.23-.537 0-.868.001 0 2.667-3.346 2.944-4.484Z"
              fill="#383838"/>
        <rect x=".5" y=".5" width="39" height="39" rx="11.5" stroke="#D8D8D8"/>
    </symbol>

    <symbol id="svg-search_close" viewBox="0 0 20 20">
        <circle cx="10" cy="10" r="10" fill="#F5F5F5"/>
        <path d="M13.9375 6.0625L6.0625 13.9375" stroke="#383838" stroke-width="1.2" stroke-linecap="round" stroke-linejoin="round"/>
        <path d="M13.9375 13.9375L6.0625 6.0625" stroke="#383838" stroke-width="1.2" stroke-linecap="round" stroke-linejoin="round"/>
    </symbol>
</svg>